<!--?xml version="1.0" encoding="utf-8"?-->
<!-- Generator: Adobe Illustrator 22.1.0, SVG Export Plug-In . SVG Version: 6.00 Build 0)  -->
<svg version="1.1" id="_x31__1_" xmlns="http://www.w3.org/2000/svg" xmlns:xlink="http://www.w3.org/1999/xlink" x="0px" y="0px" viewBox="0 0 800 612.6" style="enable-background:new 0 0 800 612.6;" xml:space="preserve">
<style type="text/css">
	.stblack{fill:#000000;}
</style>
<g>
	<path class="stblack" d="M698.2,389.7c0.6-1.1,1.2-1.9,1.7-2.6c0.8-1,1.7-1.9,3-2.9c1.3-1,3.2-2.2,5.7-3.8c15.9-9.8,33.7-23.4,47.6-42.7
		c7-9.7,12.9-20.8,17.1-33.5c4.2-12.7,6.7-27,6.7-43c0-16-2.5-30.3-6.7-43c-6.3-19-16.6-34.5-28.2-46.9
		c-11.6-12.4-24.6-21.9-36.5-29.2c-2.3-1.4-4-2.5-5.3-3.4c-1-0.7-1.7-1.3-2.3-2c-0.9-0.9-1.7-1.9-2.6-3.4c-0.9-1.5-1.9-3.5-3.2-6.2
		c-7.5-15.4-17.1-27.9-28-37.8c-16.4-14.9-35.6-24.1-55-29.5c-19.4-5.4-39-7.2-56.4-7.2c-6,0-11.7,0.2-17,0.5v0
		c-1,0-1.9,0.1-2.8,0.1c-2.4,0-4.6-0.2-6.6-0.6c-1.9-0.4-3.6-1-5.2-1.8C513,44.7,498.8,35.7,479,28.3c-19.8-7.4-45.2-13-79-13
		c-33.8,0-59.2,5.7-79,13c-19.8,7.3-34,16.3-45.3,22.6c-1.5,0.9-3.2,1.4-5.2,1.8c-1.9,0.4-4.1,0.6-6.6,0.6c-0.9,0-1.8,0-2.8-0.1
		c-5.4-0.3-11.1-0.5-17-0.5c-23.2,0-50.4,3.1-75.7,14c-12.6,5.4-24.8,12.8-35.7,22.8c-10.9,9.9-20.5,22.4-28,37.8
		c-1.2,2.4-2.1,4.2-2.9,5.6c-0.6,1.1-1.2,1.9-1.7,2.6c-0.8,1-1.7,1.9-3,2.9c-1.3,1-3.2,2.2-5.7,3.8c-15.9,9.8-33.7,23.4-47.6,42.7
		c-7,9.7-12.9,20.8-17.1,33.5c-4.2,12.7-6.7,27-6.7,43c0,16,2.5,30.3,6.7,43c6.3,19,16.6,34.5,28.2,46.9
		c11.6,12.4,24.6,21.9,36.5,29.2c2.3,1.4,4,2.5,5.3,3.4c1,0.7,1.7,1.3,2.3,2c0.9,0.9,1.7,1.9,2.6,3.4c0.9,1.5,1.9,3.5,3.2,6.2
		c7.5,15.4,17.1,27.9,28,37.8c16.4,14.9,35.6,24.1,55,29.5c19.4,5.4,39,7.2,56.4,7.2c6,0,11.7-0.2,17-0.5c1,0,1.9-0.1,2.8-0.1
		c2.4,0,4.6,0.2,6.6,0.6c2,0.4,3.6,1,5.2,1.8c11.3,6.3,25.5,15.3,45.3,22.6c19.8,7.4,45.2,13,79,13c38,0,65.4-7.2,86.1-15.8
		c4.1,5.6,10,10.2,17.3,13.6c9,4.1,20.3,6.4,33.6,6.4c9.1,0,17.2-1,24.2-3c10.6-2.9,19-7.9,24.8-14.6c2.9-3.3,5.1-7,6.6-11
		c1.5-4,2.2-8.2,2.2-12.5c0-1.3-0.1-2.5-0.2-3.8c18.1-3.2,36.7-9.1,53.7-19.4c18.6-11.3,35.3-28,46.9-51.9
		C696.4,393,697.4,391.1,698.2,389.7z M689.7,383.9c-1.2,2-2.3,4.2-3.7,7c-10.8,22.1-25.9,37.2-43,47.6
		c-17.1,10.4-36.4,16.1-55.1,18.9l-5.7,0.8l1.5,5.6c0.6,2.2,0.9,4.4,0.9,6.7c0,4.2-0.9,8-2.8,11.6c-2.8,5.3-7.7,10-15.1,13.5
		c-7.4,3.5-17.3,5.6-29.8,5.6c-12.2,0-22-2.1-29.3-5.5c-7.4-3.4-12.3-8-15.2-13.1l-2.3-4.1l-4.3,1.9c-20.1,8.9-46.8,16.6-85.9,16.6
		c-32.7,0-56.7-5.4-75.4-12.4c-18.7-7-32.2-15.4-43.8-22c-2.6-1.5-5.4-2.4-8.2-2.9c-2.8-0.6-5.7-0.7-8.5-0.7c-1.1,0-2.2,0-3.3,0.1
		l-0.1,0c-5.2,0.3-10.7,0.5-16.5,0.5c-22.3,0-48.1-3-71.6-13.1c-11.7-5-22.9-11.8-32.9-20.9c-10-9.1-18.8-20.4-25.7-34.7
		c-1.2-2.5-2.2-4.5-3.3-6.3c-0.8-1.4-1.6-2.6-2.5-3.8c-1.4-1.8-3-3.3-4.8-4.7c-1.9-1.4-4-2.8-6.6-4.4c-15.2-9.3-31.8-22.1-44.6-39.9
		c-6.4-8.9-11.9-19-15.7-30.7c-3.9-11.6-6.1-24.8-6.1-39.8c0-15,2.3-28.1,6.1-39.8c5.8-17.5,15.2-31.6,26-43.1
		c10.8-11.6,23-20.5,34.4-27.5c2.4-1.4,4.3-2.7,6-3.9c1.3-0.9,2.4-1.9,3.5-3c1.6-1.6,2.9-3.3,4.1-5.3c1.2-2,2.3-4.2,3.7-7
		c7-14.3,15.8-25.7,25.7-34.7c14.9-13.6,32.6-22.1,50.8-27.2c18.2-5.1,36.9-6.8,53.7-6.8c5.8,0,11.3,0.2,16.5,0.5l0.1,0l0.1,0
		c1.1,0,2.2,0.1,3.2,0.1c2.9,0,5.7-0.2,8.5-0.7c2.8-0.6,5.6-1.5,8.2-2.9c11.7-6.5,25.1-15,43.8-22c18.7-6.9,42.7-12.4,75.4-12.4
		c32.7,0,56.7,5.4,75.4,12.4c18.7,7,32.2,15.4,43.8,22c2.6,1.5,5.4,2.4,8.2,2.9c2.8,0.6,5.7,0.7,8.5,0.7c1.1,0,2.2,0,3.3-0.1l0.1,0
		c5.2-0.3,10.7-0.5,16.5-0.5c22.3,0,48.1,3,71.6,13.1c11.7,5,22.9,11.9,32.9,20.9c10,9.1,18.8,20.4,25.7,34.7
		c1.2,2.5,2.2,4.5,3.3,6.3c0.8,1.4,1.6,2.6,2.5,3.8c1.4,1.8,3,3.3,4.8,4.7c1.9,1.4,4,2.8,6.6,4.4c15.2,9.3,31.8,22.1,44.6,39.9
		c6.4,8.9,11.9,19,15.7,30.7c3.9,11.6,6.1,24.8,6.1,39.8c0,15-2.3,28.1-6.1,39.8c-5.8,17.5-15.2,31.6-26,43.1
		c-10.8,11.6-23,20.5-34.4,27.5c-2.4,1.4-4.3,2.7-6,3.9c-1.3,0.9-2.4,1.9-3.5,3C692.2,380.2,690.9,381.9,689.7,383.9z" style="fill: rgb(76, 16, 21);"></path>
	<path class="stblack" d="M590.9,519.5c-5.3-2.5-11.9-3.8-19.5-3.8c-5.1,0-9.7,0.6-13.8,1.7c-6.1,1.7-11.1,4.6-14.6,8.6c-1.7,2-3.1,4.3-4,6.7
		c-0.9,2.4-1.4,5-1.4,7.6c0,3.5,0.8,6.9,2.4,9.9c2.4,4.6,6.5,8.4,11.9,10.8c5.3,2.5,11.9,3.8,19.5,3.8c5.1,0,9.7-0.6,13.8-1.7
		c6.1-1.7,11.1-4.6,14.6-8.6c1.7-2,3.1-4.3,4-6.7c0.9-2.4,1.4-5,1.4-7.6c0-3.5-0.8-6.9-2.4-9.9C600.4,525.7,596.2,522,590.9,519.5z
		 M593.7,545.5c-1.2,2.4-3.5,4.6-7.1,6.3c-3.6,1.7-8.7,2.8-15.2,2.8c-4.3,0-8-0.5-11.1-1.3c-4.6-1.3-7.7-3.3-9.6-5.5
		c-1-1.1-1.7-2.3-2.1-3.5c-0.5-1.2-0.7-2.6-0.7-4c0-1.9,0.4-3.6,1.2-5.2c1.2-2.4,3.5-4.6,7.1-6.3c3.6-1.7,8.7-2.8,15.2-2.8
		c4.3,0,8,0.5,11.1,1.3c4.6,1.3,7.7,3.3,9.6,5.5c1,1.1,1.7,2.3,2.1,3.5c0.5,1.2,0.7,2.6,0.7,4C594.9,542.2,594.5,543.9,593.7,545.5z
		" style="fill: rgb(76, 16, 21);"></path>
	<path class="stblack" d="M588.4,572.5c-1.1,1.3-2,2.7-2.6,4.3c-0.6,1.6-0.9,3.2-0.9,4.9c0,2.2,0.5,4.5,1.6,6.4c1.6,3,4.2,5.4,7.5,6.9
		c3.3,1.5,7.1,2.3,11.5,2.3c2.9,0,5.6-0.3,8-1c3.6-1,6.8-2.8,9-5.4c1.1-1.3,2-2.7,2.6-4.3c0.6-1.6,0.9-3.2,0.9-4.9
		c0-2.2-0.5-4.5-1.6-6.4c-1.6-3-4.2-5.4-7.5-6.9c-3.3-1.5-7.1-2.3-11.5-2.3c-2.9,0-5.6,0.3-8,1C593.7,568.1,590.6,569.9,588.4,572.5
		z M605.4,576.4c2.1,0,3.9,0.2,5.3,0.6c2.1,0.6,3.4,1.5,4,2.2c0.3,0.4,0.6,0.8,0.7,1.2c0.1,0.4,0.2,0.8,0.2,1.3
		c0,0.7-0.1,1.2-0.4,1.7c-0.4,0.8-1.1,1.6-2.7,2.3c-1.6,0.7-3.9,1.3-7.1,1.3c-2.1,0-3.9-0.2-5.3-0.6c-2.1-0.6-3.4-1.5-4-2.2
		c-0.3-0.4-0.6-0.8-0.7-1.2c-0.1-0.4-0.2-0.8-0.2-1.3c0-0.7,0.1-1.2,0.4-1.7c0.4-0.8,1.1-1.6,2.7-2.3
		C599.8,576.9,602.2,576.4,605.4,576.4z" style="fill: rgb(76, 16, 21);"></path>
</g>
</svg>
