<svg width="300" height="200" viewBox="0 0 300 200" fill="none" xmlns="http://www.w3.org/2000/svg">
<path d="M203.171 171.111C194.25 171.111 186.987 168.855 182.645 164.821C172.855 168.103 162.158 169.709 150 169.709C125.289 169.709 111.868 163.077 102.987 158.667C102.158 158.256 101.329 157.846 100.539 157.47C99.7895 157.094 98.7237 156.923 97.1842 156.923C96.8684 156.923 96.5526 156.923 96.2368 156.957C93.9474 157.094 91.6974 157.128 89.4868 157.128C62.2895 157.128 42.7895 148.034 33.1184 130.872C31.6184 128.205 31.6184 128.205 28.8553 126.735C9.71053 116.513 0 102.427 0 84.8547C0 67.2821 9.71053 53.1966 28.8947 42.9744C31.6579 41.5043 31.6579 41.5043 33.1579 38.8376C42.8289 21.641 62.3289 12.5812 89.5263 12.5812C91.7368 12.5812 93.9868 12.6496 96.2763 12.7521C96.5921 12.7521 96.9079 12.7863 97.2237 12.7863C98.7632 12.7863 99.8289 12.6154 100.579 12.2393C101.368 11.8632 102.158 11.453 103.026 11.0427C111.908 6.63248 125.329 0 150 0C174.671 0 188.132 6.63248 196.974 11.0427C197.803 11.453 198.632 11.8632 199.421 12.2393C200.171 12.6154 201.237 12.7863 202.776 12.7863C203.092 12.7863 203.408 12.7863 203.724 12.7521C206.013 12.6154 208.263 12.5812 210.474 12.5812C237.671 12.5812 257.171 21.6752 266.842 38.8376C268.342 41.5043 268.342 41.5043 271.105 42.9744C290.289 53.1966 300 67.2821 300 84.8547C300 102.427 290.289 116.513 271.105 126.735C268.342 128.205 268.342 128.205 266.842 130.872C259.5 143.932 246.158 152.444 228.118 155.692C227.803 163.453 220.066 171.111 203.171 171.111Z" fill="#4C1015"/>
<path d="M216.553 189.094C205.776 189.094 200.96 183.863 200.96 178.667C200.96 173.47 205.776 168.239 216.553 168.239C227.329 168.239 232.145 173.47 232.145 178.667C232.145 183.863 227.329 189.094 216.553 189.094Z" fill="#4C1015"/>
<path d="M229.737 199.966C222.553 199.966 219.276 196.136 219.276 192.581C219.276 189.025 222.553 185.196 229.737 185.196C236.921 185.196 240.197 189.025 240.197 192.581C240.197 196.136 236.921 199.966 229.737 199.966Z" fill="#4C1015"/>
<path d="M268.776 46.2564C265.184 44.3419 264.671 43.7949 262.855 40.5129C250.145 17.9829 221.961 15.6582 203.961 16.6154C201.434 16.718 199.184 16.547 197.25 15.624C188.329 11.3505 175.816 3.86328 150 3.86328C124.184 3.86328 111.671 11.3163 102.75 15.624C100.816 16.547 98.5658 16.718 96.0395 16.6154C78.0395 15.6582 49.8553 17.9829 37.1842 40.547C35.3289 43.8291 34.8158 44.3761 31.2632 46.2906C19.2237 52.718 4.5 64.0342 4.5 84.8889C4.5 105.744 19.2237 117.06 31.2632 123.487C34.8553 125.402 35.3684 125.949 37.1842 129.231C49.8947 151.795 78.0395 154.12 96.0395 153.128C98.5658 153.026 100.816 153.197 102.75 154.12C111.671 158.427 124.184 165.88 150 165.88C165.474 165.88 176.132 163.214 184.145 160.137C186.829 164.342 193.263 167.282 203.171 167.282C216.632 167.282 223.658 161.88 223.658 155.214C223.658 154.291 223.5 153.402 223.224 152.513C238.184 150.598 254.132 144.65 262.816 129.197C264.671 125.915 265.184 125.368 268.737 123.453C280.776 117.026 295.5 105.709 295.5 84.8547C295.539 64.0342 280.816 52.6838 268.776 46.2564Z" fill="white"/>
<path d="M227.645 178.667C227.645 175.043 223.816 172.137 216.513 172.137C209.211 172.137 205.382 175.077 205.382 178.667C205.382 182.291 209.211 185.231 216.513 185.231C223.855 185.197 227.645 182.291 227.645 178.667Z" fill="white"/>
<path d="M229.737 196.102C233.029 196.102 235.697 194.526 235.697 192.581C235.697 190.636 233.029 189.06 229.737 189.06C226.445 189.06 223.776 190.636 223.776 192.581C223.776 194.526 226.445 196.102 229.737 196.102Z" fill="white"/>
<path d="M42.272 67.888C42.5173 67.888 42.7253 67.9787 42.896 68.16C43.0773 68.3413 43.168 68.5547 43.168 68.8V72.272C43.168 74.8747 42.5653 76.864 41.36 78.24C40.1653 79.6053 38.288 80.4747 35.728 80.848C35.472 80.8907 35.232 80.8373 35.008 80.688C34.7947 80.5387 34.6613 80.336 34.608 80.08L34.576 79.872C34.5227 79.6373 34.56 79.424 34.688 79.232C34.8267 79.0293 35.0187 78.9067 35.264 78.864C37.3653 78.512 38.8267 77.8507 39.648 76.88C40.4693 75.9093 40.88 74.3893 40.88 72.32V68.8C40.88 68.5547 40.9707 68.3413 41.152 68.16C41.3333 67.9787 41.5467 67.888 41.792 67.888H42.272ZM33.728 75.088C33.4827 75.088 33.2693 75.0027 33.088 74.832C32.9173 74.6507 32.832 74.4373 32.832 74.192V68.8C32.832 68.5547 32.9173 68.3413 33.088 68.16C33.2693 67.9787 33.4827 67.888 33.728 67.888H34.16C34.4053 67.888 34.6187 67.9787 34.8 68.16C34.9813 68.3413 35.072 68.5547 35.072 68.8V74.192C35.072 74.4373 34.9813 74.6507 34.8 74.832C34.6187 75.0027 34.4053 75.088 34.16 75.088H33.728ZM48.592 79.888L48.448 79.488C48.3627 79.264 48.3733 79.0453 48.48 78.832C48.5973 78.608 48.7733 78.464 49.008 78.4C51.5573 77.696 53.4453 76.6187 54.672 75.168C55.9093 73.7067 56.6933 71.5947 57.024 68.832C57.056 68.5867 57.168 68.3893 57.36 68.24C57.552 68.08 57.7707 68.0107 58.016 68.032L58.56 68.08C58.8053 68.1013 59.008 68.2133 59.168 68.416C59.3387 68.608 59.408 68.8267 59.376 69.072C58.9813 72.336 58.032 74.8533 56.528 76.624C55.0347 78.3947 52.7787 79.696 49.76 80.528C49.5147 80.592 49.28 80.56 49.056 80.432C48.832 80.3147 48.6773 80.1333 48.592 79.888ZM72.56 68.096C72.784 67.9787 73.0133 67.9573 73.248 68.032C73.4933 68.1067 73.6747 68.256 73.792 68.48C73.9947 68.832 74.208 69.2373 74.432 69.696C74.5493 69.92 74.5653 70.1493 74.48 70.384C74.4053 70.6187 74.256 70.7893 74.032 70.896L73.872 70.976C73.648 71.0933 73.4133 71.1147 73.168 71.04C72.9333 70.9547 72.7573 70.8 72.64 70.576C72.576 70.4373 72.4693 70.2347 72.32 69.968C72.1707 69.7013 72.064 69.504 72 69.376C71.8827 69.1627 71.856 68.9387 71.92 68.704C71.9947 68.4587 72.144 68.2827 72.368 68.176L72.56 68.096ZM75.36 67.456C75.584 67.3387 75.8133 67.3173 76.048 67.392C76.2933 67.4667 76.4747 67.616 76.592 67.84C76.8907 68.3947 77.1147 68.816 77.264 69.104C77.3813 69.328 77.3973 69.5573 77.312 69.792C77.2373 70.0267 77.088 70.1973 76.864 70.304L76.656 70.416C76.432 70.5227 76.1973 70.5387 75.952 70.464C75.7173 70.3787 75.5413 70.224 75.424 70L74.752 68.752C74.6347 68.5387 74.6133 68.3147 74.688 68.08C74.7627 67.8453 74.912 67.6693 75.136 67.552L75.36 67.456ZM63.168 77.344C62.9653 77.2053 62.848 77.0133 62.816 76.768C62.784 76.5227 62.8427 76.304 62.992 76.112C63.2907 75.7067 63.7227 75.1147 64.288 74.336C64.8533 73.5573 65.1627 73.136 65.216 73.072C66.272 71.5573 66.9653 70.6453 67.296 70.336C67.6373 70.0267 68.112 69.872 68.72 69.872C69.1467 69.872 69.4987 69.936 69.776 70.064C70.0533 70.192 70.3467 70.4 70.656 70.688C70.9653 70.976 71.5253 71.5627 72.336 72.448C73.7867 74.0373 75.3493 75.6853 77.024 77.392C77.1947 77.5733 77.28 77.792 77.28 78.048C77.28 78.2933 77.1947 78.5067 77.024 78.688L76.72 79.008C76.5387 79.1893 76.3253 79.28 76.08 79.28C75.8453 79.28 75.6373 79.1947 75.456 79.024C74.112 77.648 72.5387 75.9733 70.736 74C70.032 73.2213 69.5573 72.72 69.312 72.496C69.0773 72.272 68.88 72.16 68.72 72.16C68.592 72.16 68.4213 72.2933 68.208 72.56C68.0053 72.816 67.6373 73.3173 67.104 74.064C66.176 75.3867 65.3867 76.48 64.736 77.344C64.5867 77.5467 64.384 77.6693 64.128 77.712C63.872 77.744 63.6427 77.6853 63.44 77.536L63.168 77.344ZM80.288 75.312C80.0427 75.312 79.8293 75.2213 79.648 75.04C79.4773 74.8587 79.392 74.6453 79.392 74.4V74.08C79.392 73.8347 79.4773 73.6213 79.648 73.44C79.8293 73.2587 80.0427 73.168 80.288 73.168H91.712C91.9573 73.168 92.1653 73.2587 92.336 73.44C92.5173 73.6213 92.608 73.8347 92.608 74.08V74.4C92.608 74.6453 92.5173 74.8587 92.336 75.04C92.1653 75.2213 91.9573 75.312 91.712 75.312H80.288ZM108.064 70.048C108.309 70.0907 108.501 70.2187 108.64 70.432C108.789 70.6347 108.837 70.8533 108.784 71.088C108.133 74.0853 106.949 76.3147 105.232 77.776C103.515 79.2373 101.008 80.16 97.712 80.544C97.456 80.576 97.2267 80.512 97.024 80.352C96.8213 80.2027 96.6987 80 96.656 79.744L96.624 79.504C96.5813 79.2693 96.6347 79.056 96.784 78.864C96.9333 78.672 97.1307 78.56 97.376 78.528C100.245 78.1973 102.384 77.4507 103.792 76.288C105.211 75.1147 106.197 73.264 106.752 70.736C106.805 70.4907 106.933 70.2987 107.136 70.16C107.349 70.0107 107.579 69.9573 107.824 70L108.064 70.048ZM96.736 73.616C96.4907 73.5733 96.2933 73.4507 96.144 73.248C96.0053 73.0453 95.9627 72.8213 96.016 72.576L96.032 72.464C96.0747 72.2187 96.208 72.0213 96.432 71.872C96.656 71.7227 96.8907 71.6747 97.136 71.728C97.7333 71.8347 98.896 72.0587 100.624 72.4C100.869 72.4427 101.056 72.5707 101.184 72.784C101.323 72.9867 101.365 73.216 101.312 73.472L101.296 73.584C101.243 73.8293 101.109 74.0213 100.896 74.16C100.693 74.2987 100.475 74.3467 100.24 74.304C98.2027 73.8987 97.0347 73.6693 96.736 73.616ZM101.52 68.512C101.765 68.5547 101.957 68.6827 102.096 68.896C102.235 69.1093 102.277 69.3387 102.224 69.584L102.192 69.728C102.149 69.9733 102.021 70.1653 101.808 70.304C101.605 70.4427 101.381 70.4853 101.136 70.432C99.8133 70.1653 98.5973 69.936 97.488 69.744C97.2427 69.7013 97.0453 69.5787 96.896 69.376C96.7573 69.1733 96.7093 68.9493 96.752 68.704L96.784 68.576C96.8267 68.3307 96.9547 68.1333 97.168 67.984C97.3813 67.8347 97.6107 67.7813 97.856 67.824C98.9227 68.0053 100.144 68.2347 101.52 68.512ZM120.528 78.48C120.624 78.48 120.672 78.4373 120.672 78.352V76.272C120.672 76.1867 120.624 76.144 120.528 76.144H114.656C114.421 76.144 114.219 76.064 114.048 75.904C113.888 75.7333 113.808 75.5307 113.808 75.296C113.808 75.0613 113.888 74.8587 114.048 74.688C114.219 74.5173 114.421 74.432 114.656 74.432H120.528C120.624 74.432 120.672 74.3893 120.672 74.304V72.656C120.672 72.5707 120.624 72.528 120.528 72.528H113.952C113.717 72.528 113.515 72.448 113.344 72.288C113.184 72.1173 113.104 71.9147 113.104 71.68C113.104 71.4453 113.184 71.2427 113.344 71.072C113.515 70.9013 113.717 70.816 113.952 70.816H121.824C122.069 70.816 122.283 70.9067 122.464 71.088C122.645 71.2693 122.736 71.4827 122.736 71.728V79.312C122.736 79.5573 122.645 79.7707 122.464 79.952C122.283 80.1333 122.069 80.224 121.824 80.224H113.968C113.733 80.224 113.531 80.1387 113.36 79.968C113.189 79.7973 113.104 79.5947 113.104 79.36C113.104 79.1147 113.189 78.9067 113.36 78.736C113.531 78.5653 113.733 78.48 113.968 78.48H120.528ZM128.976 70.304C128.752 70.1973 128.603 70.0267 128.528 69.792C128.453 69.5573 128.475 69.3333 128.592 69.12L128.752 68.8C128.869 68.576 129.045 68.4267 129.28 68.352C129.525 68.2773 129.765 68.2933 130 68.4C131.056 68.912 132.171 69.488 133.344 70.128C133.557 70.2453 133.696 70.4267 133.76 70.672C133.835 70.9173 133.813 71.1467 133.696 71.36L133.52 71.68C133.403 71.8933 133.221 72.0373 132.976 72.112C132.731 72.176 132.501 72.1493 132.288 72.032C131.04 71.3493 129.936 70.7733 128.976 70.304ZM140.112 69.792C140.357 69.8453 140.549 69.9787 140.688 70.192C140.827 70.4053 140.869 70.6347 140.816 70.88C140.187 73.6213 138.955 75.7653 137.12 77.312C135.296 78.8587 132.832 79.8293 129.728 80.224C129.472 80.256 129.243 80.192 129.04 80.032C128.848 79.8827 128.731 79.68 128.688 79.424L128.656 79.136C128.613 78.8907 128.667 78.672 128.816 78.48C128.965 78.2773 129.163 78.16 129.408 78.128C132.032 77.7653 134.096 76.9653 135.6 75.728C137.104 74.4907 138.155 72.7253 138.752 70.432C138.816 70.1867 138.955 69.9947 139.168 69.856C139.381 69.7173 139.611 69.6747 139.856 69.728L140.112 69.792ZM149.728 80.912C147.915 80.912 146.661 80.4747 145.968 79.6C145.275 78.7147 144.928 77.088 144.928 74.72C144.928 72.7893 144.987 70.7093 145.104 68.48C145.125 68.224 145.221 68.0107 145.392 67.84C145.573 67.6693 145.792 67.5893 146.048 67.6H146.432C146.677 67.6107 146.88 67.7067 147.04 67.888C147.211 68.0693 147.291 68.2827 147.28 68.528C147.173 70.8213 147.12 72.8853 147.12 74.72C147.12 75.872 147.211 76.752 147.392 77.36C147.584 77.9573 147.856 78.3627 148.208 78.576C148.56 78.7787 149.067 78.88 149.728 78.88C151.573 78.88 153.077 77.6213 154.24 75.104C154.347 74.88 154.512 74.72 154.736 74.624C154.971 74.5173 155.205 74.5067 155.44 74.592L155.648 74.688C155.883 74.7733 156.053 74.9333 156.16 75.168C156.267 75.4027 156.267 75.632 156.16 75.856C154.699 79.2267 152.555 80.912 149.728 80.912ZM160.32 70.56C160.075 70.56 159.861 70.4747 159.68 70.304C159.509 70.1227 159.424 69.9093 159.424 69.664V69.552C159.424 69.3067 159.515 69.0933 159.696 68.912C159.877 68.7307 160.091 68.64 160.336 68.64C163.984 68.6293 167.755 68.5387 171.648 68.368C171.893 68.3573 172.112 68.4373 172.304 68.608C172.496 68.7787 172.597 68.9867 172.608 69.232V69.344C172.619 69.6 172.539 69.824 172.368 70.016C172.208 70.1973 172 70.304 171.744 70.336C169.483 70.624 167.781 71.2107 166.64 72.096C165.499 72.9707 164.928 74.016 164.928 75.232C164.928 76.2987 165.291 77.1413 166.016 77.76C166.741 78.3787 167.696 78.688 168.88 78.688C169.243 78.688 169.595 78.6667 169.936 78.624C170.181 78.6027 170.4 78.6667 170.592 78.816C170.795 78.9653 170.912 79.1627 170.944 79.408L170.96 79.552C170.992 79.7973 170.933 80.0213 170.784 80.224C170.635 80.4373 170.437 80.56 170.192 80.592C169.68 80.6453 169.205 80.672 168.768 80.672C166.901 80.672 165.413 80.1973 164.304 79.248C163.195 78.2987 162.64 77.0293 162.64 75.44C162.64 74.4693 162.944 73.5467 163.552 72.672C164.16 71.7973 165.019 71.0613 166.128 70.464C166.139 70.464 166.144 70.4533 166.144 70.432H166.128C164.475 70.496 162.539 70.5387 160.32 70.56ZM179.872 74.624C178.944 74.7627 178.24 75.008 177.76 75.36C177.28 75.7013 177.04 76.1013 177.04 76.56C177.04 76.9973 177.205 77.4347 177.536 77.872C177.867 78.2987 178.181 78.512 178.48 78.512C179.077 78.512 179.584 77.2533 180 74.736C180.011 74.704 180 74.6773 179.968 74.656C179.936 74.624 179.904 74.6133 179.872 74.624ZM178.592 80.592C177.707 80.592 176.88 80.1813 176.112 79.36C175.344 78.528 174.96 77.5947 174.96 76.56C174.96 75.5893 175.419 74.7467 176.336 74.032C177.264 73.3067 178.544 72.864 180.176 72.704C180.24 72.704 180.283 72.656 180.304 72.56C180.4 71.8133 180.496 70.9387 180.592 69.936C180.592 69.8507 180.549 69.808 180.464 69.808H177.04C176.795 69.808 176.581 69.7227 176.4 69.552C176.219 69.3707 176.128 69.1573 176.128 68.912C176.128 68.6667 176.219 68.4533 176.4 68.272C176.581 68.0907 176.795 68 177.04 68H181.84C182.085 68 182.299 68.0907 182.48 68.272C182.661 68.4533 182.752 68.6667 182.752 68.912V69.808C182.645 70.7253 182.533 71.6373 182.416 72.544C182.405 72.5867 182.416 72.624 182.448 72.656C182.48 72.6773 182.517 72.688 182.56 72.688C183.36 72.7413 184.091 72.848 184.752 73.008C184.848 73.0293 184.896 72.9973 184.896 72.912C184.917 71.8667 184.928 70.96 184.928 70.192C184.928 69.9467 185.019 69.7333 185.2 69.552C185.381 69.3707 185.595 69.28 185.84 69.28H186.048C186.304 69.28 186.517 69.3707 186.688 69.552C186.869 69.7227 186.96 69.936 186.96 70.192C186.96 71.568 186.939 72.6827 186.896 73.536C186.896 73.6427 186.939 73.712 187.024 73.744C187.621 73.9893 188.155 74.24 188.624 74.496C188.848 74.6133 188.992 74.7947 189.056 75.04C189.12 75.2853 189.093 75.52 188.976 75.744L188.912 75.856C188.805 76.0693 188.635 76.208 188.4 76.272C188.165 76.336 187.941 76.3093 187.728 76.192L186.864 75.76C186.789 75.728 186.741 75.7547 186.72 75.84C186.56 77.1733 186.277 78.176 185.872 78.848C185.467 79.5093 184.821 80.112 183.936 80.656C183.723 80.7947 183.493 80.8267 183.248 80.752C183.003 80.688 182.811 80.5493 182.672 80.336L182.576 80.192C182.448 79.9787 182.416 79.7547 182.48 79.52C182.544 79.2747 182.683 79.088 182.896 78.96C183.515 78.576 183.957 78.128 184.224 77.616C184.501 77.0933 184.688 76.2667 184.784 75.136C184.784 75.0293 184.752 74.9707 184.688 74.96C183.952 74.7573 183.152 74.6187 182.288 74.544C182.181 74.544 182.123 74.5813 182.112 74.656C181.835 76.32 181.52 77.5947 181.168 78.48C180.816 79.3547 180.448 79.9253 180.064 80.192C179.691 80.4587 179.2 80.592 178.592 80.592ZM198.752 74.064C198.517 74.0853 198.304 74.0213 198.112 73.872C197.931 73.712 197.829 73.5093 197.808 73.264C197.787 73.0187 197.856 72.8 198.016 72.608C198.176 72.4053 198.379 72.2933 198.624 72.272C200.267 72.1013 201.877 72.0107 203.456 72C203.701 72 203.909 72.0907 204.08 72.272C204.251 72.4427 204.336 72.6507 204.336 72.896C204.336 73.1413 204.245 73.3547 204.064 73.536C203.893 73.7067 203.685 73.792 203.44 73.792C201.744 73.824 200.181 73.9147 198.752 74.064ZM203.568 78.656C203.813 78.624 204.032 78.6827 204.224 78.832C204.427 78.9813 204.544 79.1787 204.576 79.424C204.608 79.68 204.549 79.9093 204.4 80.112C204.251 80.3147 204.053 80.432 203.808 80.464C202.933 80.5813 202.107 80.64 201.328 80.64C199.856 80.64 198.677 80.3733 197.792 79.84C196.917 79.296 196.48 78.6027 196.48 77.76C196.48 77.1307 196.795 76.496 197.424 75.856C197.605 75.6747 197.824 75.5787 198.08 75.568C198.347 75.5467 198.587 75.6053 198.8 75.744C198.981 75.8613 199.077 76.0267 199.088 76.24C199.109 76.4533 199.045 76.64 198.896 76.8C198.629 77.0667 198.496 77.3173 198.496 77.552C198.496 77.9253 198.747 78.2347 199.248 78.48C199.76 78.7147 200.453 78.832 201.328 78.832C201.968 78.832 202.715 78.7733 203.568 78.656ZM192.128 80.672C191.893 80.6187 191.712 80.4853 191.584 80.272C191.467 80.0587 191.451 79.8347 191.536 79.6C192.464 76.752 193.243 73.84 193.872 70.864C193.893 70.768 193.861 70.72 193.776 70.72H192.64C192.395 70.72 192.181 70.6293 192 70.448C191.819 70.2667 191.728 70.0533 191.728 69.808C191.728 69.5627 191.819 69.3547 192 69.184C192.181 69.0027 192.395 68.912 192.64 68.912H194.128C194.213 68.912 194.267 68.8693 194.288 68.784C194.373 68.3787 194.432 68.0747 194.464 67.872C194.517 67.616 194.64 67.4133 194.832 67.264C195.035 67.104 195.264 67.0347 195.52 67.056L195.728 67.072C195.973 67.0933 196.171 67.2053 196.32 67.408C196.469 67.6 196.523 67.8187 196.48 68.064C196.469 68.1493 196.448 68.2667 196.416 68.416C196.384 68.5653 196.363 68.6827 196.352 68.768C196.341 68.8 196.347 68.832 196.368 68.864C196.4 68.896 196.432 68.912 196.464 68.912H201.008C201.253 68.912 201.467 69.0027 201.648 69.184C201.829 69.3547 201.92 69.5627 201.92 69.808C201.92 70.0533 201.829 70.2667 201.648 70.448C201.467 70.6293 201.253 70.72 201.008 70.72H196.128C196.032 70.72 195.973 70.7627 195.952 70.848C195.28 74.1547 194.48 77.2267 193.552 80.064C193.477 80.3093 193.323 80.4907 193.088 80.608C192.864 80.736 192.629 80.7733 192.384 80.72L192.128 80.672ZM218.576 78.128C218.459 75.216 217.909 72.5387 216.928 70.096C216.843 69.872 216.848 69.6533 216.944 69.44C217.04 69.216 217.205 69.0667 217.44 68.992L217.664 68.928C217.909 68.8533 218.149 68.8747 218.384 68.992C218.629 69.0987 218.805 69.2693 218.912 69.504C220.011 72.0747 220.608 74.9493 220.704 78.128C220.715 78.3733 220.629 78.5867 220.448 78.768C220.267 78.9493 220.053 79.04 219.808 79.04H219.488C219.243 79.04 219.029 78.9493 218.848 78.768C218.677 78.5867 218.587 78.3733 218.576 78.128ZM211.328 80.752C210.421 80.752 209.579 80.1333 208.8 78.896C208.032 77.6587 207.648 76.16 207.648 74.4C207.648 72.7893 207.835 71.2107 208.208 69.664C208.272 69.408 208.411 69.2107 208.624 69.072C208.848 68.9227 209.093 68.864 209.36 68.896L209.632 68.928C209.867 68.9493 210.048 69.0613 210.176 69.264C210.315 69.4667 210.357 69.6853 210.304 69.92C209.963 71.4347 209.792 72.928 209.792 74.4C209.792 75.584 209.979 76.5813 210.352 77.392C210.736 78.2027 211.115 78.608 211.488 78.608C211.723 78.608 212.027 78.384 212.4 77.936C212.773 77.4773 213.152 76.816 213.536 75.952C213.643 75.7173 213.808 75.552 214.032 75.456C214.267 75.3493 214.501 75.3387 214.736 75.424L214.912 75.488C215.147 75.5733 215.317 75.7333 215.424 75.968C215.531 76.192 215.536 76.416 215.44 76.64C214.896 77.9307 214.245 78.9387 213.488 79.664C212.731 80.3893 212.011 80.752 211.328 80.752ZM228.88 72.272C228.635 72.272 228.421 72.1813 228.24 72C228.059 71.8187 227.968 71.6053 227.968 71.36C227.968 71.1147 228.059 70.9013 228.24 70.72C228.421 70.5387 228.635 70.448 228.88 70.448H232.64C232.725 70.448 232.768 70.4053 232.768 70.32V68.368C232.768 68.1227 232.859 67.9147 233.04 67.744C233.221 67.5627 233.435 67.472 233.68 67.472H233.888C234.133 67.472 234.347 67.5627 234.528 67.744C234.709 67.9147 234.8 68.1227 234.8 68.368V70.32C234.8 70.4053 234.848 70.448 234.944 70.448H236.24C236.485 70.448 236.699 70.5387 236.88 70.72C237.061 70.9013 237.152 71.1147 237.152 71.36C237.152 71.6053 237.061 71.8187 236.88 72C236.699 72.1813 236.485 72.272 236.24 72.272H234.944C234.848 72.272 234.8 72.3147 234.8 72.4V74.192C234.8 76.2187 234.533 77.68 234 78.576C233.467 79.4613 232.443 80.1387 230.928 80.608C230.683 80.6827 230.448 80.6613 230.224 80.544C230 80.4267 229.845 80.2453 229.76 80L229.712 79.888C229.627 79.664 229.637 79.4453 229.744 79.232C229.861 79.0187 230.037 78.8693 230.272 78.784C230.837 78.6027 231.269 78.4213 231.568 78.24C231.877 78.048 232.128 77.776 232.32 77.424C232.512 77.0613 232.635 76.6453 232.688 76.176C232.741 75.7067 232.768 75.0453 232.768 74.192V72.4C232.768 72.3147 232.725 72.272 232.64 72.272H228.88ZM225.296 80.768C225.04 80.8 224.805 80.7413 224.592 80.592C224.379 80.4533 224.245 80.256 224.192 80C223.797 78.1973 223.6 76.2773 223.6 74.24C223.6 72.2027 223.797 70.2827 224.192 68.48C224.245 68.224 224.379 68.0267 224.592 67.888C224.805 67.7387 225.04 67.68 225.296 67.712L225.6 67.744C225.835 67.7653 226.021 67.8773 226.16 68.08C226.299 68.2827 226.341 68.5013 226.288 68.736C225.915 70.4213 225.728 72.256 225.728 74.24C225.728 76.224 225.915 78.0587 226.288 79.744C226.341 79.9787 226.299 80.1973 226.16 80.4C226.021 80.6027 225.835 80.7147 225.6 80.736L225.296 80.768ZM248.272 67.536C248.496 67.4187 248.731 67.3973 248.976 67.472C249.221 67.5467 249.403 67.696 249.52 67.92C249.637 68.1333 249.813 68.464 250.048 68.912C250.155 69.136 250.165 69.3653 250.08 69.6C249.995 69.8347 249.84 70.0053 249.616 70.112C249.381 70.2187 249.147 70.2293 248.912 70.144C248.677 70.0587 248.501 69.904 248.384 69.68C248.331 69.584 248.16 69.2693 247.872 68.736C247.755 68.5227 247.733 68.2987 247.808 68.064C247.883 67.8293 248.032 67.6533 248.256 67.536H248.272ZM250.832 66.976C251.056 66.8587 251.291 66.8373 251.536 66.912C251.781 66.976 251.963 67.12 252.08 67.344C252.432 68.016 252.613 68.3627 252.624 68.384C252.741 68.608 252.757 68.8373 252.672 69.072C252.597 69.3067 252.448 69.4773 252.224 69.584L252.176 69.616C251.952 69.7227 251.717 69.7387 251.472 69.664C251.237 69.5787 251.061 69.424 250.944 69.2C250.891 69.0933 250.805 68.928 250.688 68.704C250.571 68.48 250.48 68.3147 250.416 68.208C250.299 67.9947 250.272 67.7653 250.336 67.52C250.411 67.2747 250.56 67.0987 250.784 66.992L250.832 66.976ZM245.888 80.96C241.909 80.96 239.92 79.7173 239.92 77.232C239.92 75.824 240.821 74.624 242.624 73.632C242.709 73.5893 242.72 73.536 242.656 73.472C242.571 73.3653 242.512 73.2427 242.48 73.104C242.075 71.3867 241.771 69.9573 241.568 68.816C241.525 68.5707 241.573 68.3467 241.712 68.144C241.861 67.9307 242.059 67.8027 242.304 67.76L242.704 67.696C242.949 67.6533 243.173 67.7067 243.376 67.856C243.579 68.0053 243.707 68.2027 243.76 68.448C244.037 69.952 244.331 71.3173 244.64 72.544C244.651 72.576 244.672 72.6027 244.704 72.624C244.736 72.6453 244.768 72.6507 244.8 72.64C246.133 72.128 247.829 71.6267 249.888 71.136C250.133 71.0827 250.363 71.1253 250.576 71.264C250.8 71.392 250.933 71.5787 250.976 71.824L251.008 71.968C251.051 72.2133 251.008 72.4427 250.88 72.656C250.752 72.8693 250.565 73.0027 250.32 73.056C248.283 73.536 246.651 74.0107 245.424 74.48C244.208 74.9493 243.36 75.4027 242.88 75.84C242.4 76.2667 242.16 76.7307 242.16 77.232C242.16 77.84 242.459 78.2933 243.056 78.592C243.653 78.8907 244.597 79.04 245.888 79.04C247.307 79.04 248.731 78.944 250.16 78.752C250.405 78.72 250.624 78.7787 250.816 78.928C251.019 79.0773 251.136 79.2747 251.168 79.52L251.184 79.632C251.216 79.8773 251.152 80.1013 250.992 80.304C250.843 80.5173 250.645 80.64 250.4 80.672C249.045 80.864 247.541 80.96 245.888 80.96ZM257.328 80.496C256.805 79.856 256.208 79.1627 255.536 78.416C255.365 78.2347 255.285 78.0213 255.296 77.776C255.317 77.52 255.424 77.312 255.616 77.152L255.808 76.992C256 76.832 256.219 76.7573 256.464 76.768C256.709 76.7787 256.917 76.88 257.088 77.072C257.643 77.7013 258.277 78.4373 258.992 79.28C259.152 79.472 259.216 79.6907 259.184 79.936C259.152 80.1707 259.035 80.3627 258.832 80.512L258.64 80.672C258.437 80.8213 258.208 80.8747 257.952 80.832C257.696 80.8 257.488 80.688 257.328 80.496ZM36.896 91.568C37.1413 91.568 37.3547 91.6587 37.536 91.84C37.7173 92.0213 37.808 92.2347 37.808 92.48C37.808 92.7253 37.7173 92.9387 37.536 93.12C37.3547 93.3013 37.1413 93.392 36.896 93.392H36.816C36.72 93.392 36.672 93.4347 36.672 93.52V102.8C36.672 103.451 36.6507 103.925 36.608 104.224C36.576 104.533 36.464 104.789 36.272 104.992C36.08 105.195 35.84 105.312 35.552 105.344C35.2747 105.387 34.832 105.408 34.224 105.408C33.552 105.408 32.944 105.397 32.4 105.376C32.144 105.365 31.9253 105.269 31.744 105.088C31.5733 104.907 31.4773 104.688 31.456 104.432C31.4453 104.187 31.5253 103.979 31.696 103.808C31.8667 103.627 32.0747 103.541 32.32 103.552C33.0773 103.584 33.5893 103.6 33.856 103.6C34.208 103.6 34.4213 103.563 34.496 103.488C34.5707 103.413 34.608 103.2 34.608 102.848V93.52C34.608 93.4347 34.56 93.392 34.464 93.392H28.688C28.4427 93.392 28.2293 93.3013 28.048 93.12C27.8667 92.9387 27.776 92.7253 27.776 92.48C27.776 92.2347 27.8667 92.0213 28.048 91.84C28.2293 91.6587 28.4427 91.568 28.688 91.568H36.896ZM28.48 102.768C28.2347 102.768 28.0213 102.683 27.84 102.512C27.6587 102.331 27.568 102.117 27.568 101.872V95.84C27.568 95.5947 27.6587 95.3813 27.84 95.2C28.0213 95.0187 28.2347 94.928 28.48 94.928H32.512C32.7573 94.928 32.9707 95.0187 33.152 95.2C33.3333 95.3813 33.424 95.5947 33.424 95.84V100.592C33.424 100.837 33.3333 101.051 33.152 101.232C32.9707 101.403 32.7573 101.488 32.512 101.488H29.632C29.536 101.488 29.488 101.536 29.488 101.632V101.872C29.488 102.117 29.3973 102.331 29.216 102.512C29.0453 102.683 28.8373 102.768 28.592 102.768H28.48ZM29.488 96.64V99.776C29.488 99.872 29.536 99.92 29.632 99.92H31.456C31.5413 99.92 31.584 99.872 31.584 99.776V96.64C31.584 96.5547 31.5413 96.512 31.456 96.512H29.632C29.536 96.512 29.488 96.5547 29.488 96.64ZM22.944 99.152L22.768 98.704C22.5547 98.1493 22.6293 97.6267 22.992 97.136C24.08 95.6427 24.8747 93.8667 25.376 91.808C25.4293 91.5627 25.5627 91.3707 25.776 91.232C25.9893 91.0827 26.2187 91.0293 26.464 91.072L26.64 91.088C26.8853 91.1307 27.0773 91.2533 27.216 91.456C27.3653 91.6587 27.4133 91.8827 27.36 92.128C27.1147 93.248 26.8107 94.256 26.448 95.152C26.416 95.2267 26.4 95.3173 26.4 95.424V104.592C26.4 104.837 26.3093 105.045 26.128 105.216C25.9467 105.397 25.7333 105.488 25.488 105.488H25.248C25.0027 105.488 24.7893 105.397 24.608 105.216C24.4373 105.045 24.352 104.837 24.352 104.592V98.592C24.352 98.5707 24.3413 98.56 24.32 98.56C24.3093 98.56 24.2987 98.5653 24.288 98.576C24.192 98.7467 24.0373 98.9813 23.824 99.28C23.7067 99.4507 23.5467 99.52 23.344 99.488C23.152 99.4453 23.0187 99.3333 22.944 99.152ZM40.08 95.888C39.8347 95.888 39.6213 95.8027 39.44 95.632C39.2587 95.4507 39.168 95.2373 39.168 94.992C39.168 94.7467 39.2587 94.5333 39.44 94.352C39.6213 94.1707 39.8347 94.08 40.08 94.08H41.904C41.9893 94.08 42.0427 94.032 42.064 93.936C42.224 93.232 42.368 92.5013 42.496 91.744C42.5493 91.4987 42.672 91.3013 42.864 91.152C43.0667 90.992 43.296 90.9227 43.552 90.944L43.664 90.96C43.9093 90.9813 44.1067 91.0933 44.256 91.296C44.4053 91.488 44.4587 91.7067 44.416 91.952C44.2773 92.7627 44.16 93.4293 44.064 93.952C44.0427 94.0373 44.08 94.08 44.176 94.08H45.088C45.632 94.08 46.0373 94.08 46.304 94.08C46.5813 94.08 46.8853 94.112 47.216 94.176C47.5467 94.24 47.7707 94.2933 47.888 94.336C48.016 94.3787 48.16 94.5013 48.32 94.704C48.4907 94.9067 48.592 95.088 48.624 95.248C48.656 95.408 48.6987 95.696 48.752 96.112C48.8053 96.5173 48.832 96.8907 48.832 97.232C48.832 97.5733 48.832 98.0853 48.832 98.768C48.832 100.816 48.5813 102.325 48.08 103.296C47.5787 104.267 46.9013 104.752 46.048 104.752C45.408 104.752 44.5707 104.597 43.536 104.288C43.2907 104.213 43.1093 104.064 42.992 103.84C42.8747 103.616 42.8533 103.376 42.928 103.12L42.96 103.024C43.0347 102.789 43.1787 102.619 43.392 102.512C43.616 102.395 43.8507 102.373 44.096 102.448C44.8 102.661 45.312 102.768 45.632 102.768C45.8133 102.768 45.9787 102.635 46.128 102.368C46.2773 102.101 46.4053 101.632 46.512 100.96C46.6293 100.277 46.688 99.44 46.688 98.448C46.688 97.168 46.6293 96.4213 46.512 96.208C46.4053 95.9947 46.0053 95.888 45.312 95.888H43.776C43.6907 95.888 43.6373 95.9307 43.616 96.016C42.9547 98.7787 42.1173 101.451 41.104 104.032C41.008 104.277 40.8427 104.448 40.608 104.544C40.384 104.651 40.1547 104.661 39.92 104.576L39.808 104.544C39.5733 104.469 39.408 104.315 39.312 104.08C39.216 103.856 39.2107 103.627 39.296 103.392C40.1813 101.056 40.944 98.5973 41.584 96.016C41.6053 95.9307 41.5733 95.888 41.488 95.888H40.08ZM51.44 100.544C50.8747 98.5067 50.192 96.4267 49.392 94.304C49.3067 94.08 49.3173 93.8613 49.424 93.648C49.5307 93.424 49.7013 93.2747 49.936 93.2L50.144 93.136C50.3893 93.0613 50.6293 93.0827 50.864 93.2C51.0987 93.3173 51.2587 93.4987 51.344 93.744C52.08 95.664 52.7627 97.776 53.392 100.08C53.456 100.315 53.424 100.544 53.296 100.768C53.168 100.981 52.9813 101.115 52.736 101.168L52.544 101.2C52.2987 101.253 52.0693 101.216 51.856 101.088C51.6427 100.96 51.504 100.779 51.44 100.544ZM57.136 100.08C56.8907 100.027 56.6933 99.8987 56.544 99.696C56.4053 99.4827 56.3573 99.2533 56.4 99.008C56.656 97.536 56.832 96.464 56.928 95.792C56.9707 95.536 57.088 95.328 57.28 95.168C57.472 94.9973 57.696 94.9227 57.952 94.944L58.224 94.976C58.4693 94.9973 58.6667 95.104 58.816 95.296C58.976 95.488 59.04 95.7067 59.008 95.952C58.8693 96.9653 58.768 97.6747 58.704 98.08V98.112H58.72L58.736 98.096C59.44 97.616 60.2187 97.2373 61.072 96.96C61.936 96.672 62.7467 96.528 63.504 96.528C65.0933 96.528 66.2613 96.8427 67.008 97.472C67.7653 98.0907 68.144 99.04 68.144 100.32C68.144 101.739 67.5467 102.843 66.352 103.632C65.1573 104.411 63.424 104.8 61.152 104.8C60.3093 104.8 59.3867 104.757 58.384 104.672C58.128 104.651 57.9147 104.544 57.744 104.352C57.584 104.16 57.5147 103.936 57.536 103.68V103.648C57.5467 103.403 57.648 103.2 57.84 103.04C58.0427 102.88 58.2667 102.811 58.512 102.832C59.7387 102.939 60.6187 102.992 61.152 102.992C62.624 102.992 63.7547 102.757 64.544 102.288C65.344 101.808 65.744 101.152 65.744 100.32C65.744 99.008 64.8907 98.352 63.184 98.352C62 98.352 60.5813 98.8427 58.928 99.824C58.3733 100.144 57.8187 100.24 57.264 100.112L57.136 100.08ZM59.408 91.952C61.3813 92.1653 63.3173 92.288 65.216 92.32C65.4613 92.32 65.6693 92.4107 65.84 92.592C66.0213 92.7733 66.112 92.9867 66.112 93.232C66.112 93.4773 66.0213 93.6907 65.84 93.872C65.6693 94.0427 65.4613 94.128 65.216 94.128C63.1573 94.096 61.1467 93.9733 59.184 93.76C58.928 93.728 58.72 93.6107 58.56 93.408C58.4107 93.2053 58.352 92.9813 58.384 92.736C58.416 92.4907 58.5333 92.2933 58.736 92.144C58.9387 91.9947 59.1627 91.9307 59.408 91.952ZM83.952 98.512C84.1973 98.512 84.4053 98.6027 84.576 98.784C84.7573 98.9547 84.848 99.1627 84.848 99.408V104.592C84.848 104.837 84.7573 105.045 84.576 105.216C84.4053 105.397 84.1973 105.488 83.952 105.488H83.376C83.1947 105.488 83.04 105.424 82.912 105.296C82.784 105.168 82.72 105.019 82.72 104.848C82.72 104.784 82.688 104.752 82.624 104.752H78.528C78.464 104.752 78.432 104.784 78.432 104.848C78.432 105.019 78.368 105.168 78.24 105.296C78.112 105.424 77.9573 105.488 77.776 105.488H77.248C77.0027 105.488 76.7893 105.397 76.608 105.216C76.4373 105.045 76.352 104.837 76.352 104.592V99.408C76.352 99.1627 76.4373 98.9547 76.608 98.784C76.7893 98.6027 77.0027 98.512 77.248 98.512H83.952ZM82.72 102.896V100.4C82.72 100.315 82.672 100.272 82.576 100.272H78.56C78.4747 100.272 78.432 100.315 78.432 100.4V102.896C78.432 102.992 78.4747 103.04 78.56 103.04H82.576C82.672 103.04 82.72 102.992 82.72 102.896ZM71.344 95.152C71.1093 95.152 70.9013 95.0667 70.72 94.896C70.5493 94.7147 70.464 94.5067 70.464 94.272C70.464 94.0373 70.5493 93.8347 70.72 93.664C70.9013 93.4827 71.1093 93.392 71.344 93.392H71.728C71.8133 93.392 71.8667 93.344 71.888 93.248C71.8987 93.152 71.92 92.9387 71.952 92.608C71.9947 92.2667 72.0267 92 72.048 91.808C72.0693 91.5627 72.176 91.36 72.368 91.2C72.56 91.0293 72.7787 90.9493 73.024 90.96H73.104C73.3493 90.9707 73.552 91.0667 73.712 91.248C73.8827 91.4293 73.9573 91.6427 73.936 91.888C73.872 92.5067 73.824 92.96 73.792 93.248C73.7707 93.344 73.8133 93.392 73.92 93.392H75.296C75.5413 93.392 75.7547 93.4827 75.936 93.664C76.1173 93.8453 76.208 94.0587 76.208 94.304C76.208 94.6773 76.1867 95.2053 76.144 95.888C76.144 95.9093 76.1547 95.9253 76.176 95.936C76.208 95.9467 76.2347 95.9467 76.256 95.936C76.384 95.8507 76.5173 95.8027 76.656 95.792C76.7307 95.792 76.7893 95.7493 76.832 95.664C77.3227 94.5013 77.8507 93.136 78.416 91.568C78.5013 91.3227 78.656 91.1413 78.88 91.024C79.1147 90.896 79.3547 90.864 79.6 90.928L79.76 90.96C79.9947 91.024 80.1707 91.1627 80.288 91.376C80.4053 91.5893 80.4213 91.8133 80.336 92.048C79.888 93.2853 79.44 94.432 78.992 95.488C78.9493 95.5733 78.976 95.616 79.072 95.616C80.0427 95.5307 81.1573 95.408 82.416 95.248C82.5013 95.2267 82.528 95.1787 82.496 95.104C82.4853 95.0827 82.288 94.704 81.904 93.968C81.7867 93.7547 81.7653 93.5307 81.84 93.296C81.9253 93.0613 82.08 92.896 82.304 92.8L82.448 92.736C82.6827 92.6293 82.9173 92.6187 83.152 92.704C83.3973 92.7893 83.5787 92.944 83.696 93.168C84.4 94.4693 84.9653 95.6 85.392 96.56C85.4987 96.784 85.504 97.0133 85.408 97.248C85.3227 97.4827 85.1627 97.648 84.928 97.744L84.784 97.808C84.5493 97.9147 84.3147 97.9253 84.08 97.84C83.856 97.744 83.6907 97.5787 83.584 97.344C83.5733 97.3013 83.5467 97.2427 83.504 97.168C83.4613 97.0933 83.4347 97.0347 83.424 96.992C83.3813 96.9067 83.3173 96.8747 83.232 96.896C81.024 97.248 78.88 97.488 76.8 97.616C76.5227 97.6373 76.288 97.5413 76.096 97.328C76.0853 97.3067 76.064 97.3013 76.032 97.312C76 97.3227 75.984 97.3387 75.984 97.36C75.8133 98.5333 75.5413 99.6107 75.168 100.592C75.136 100.677 75.1467 100.757 75.2 100.832C75.488 101.28 75.776 101.76 76.064 102.272C76.192 102.507 76.2293 102.752 76.176 103.008C76.1333 103.264 76.0107 103.483 75.808 103.664L75.728 103.744C75.5573 103.893 75.36 103.947 75.136 103.904C74.9227 103.861 74.7627 103.739 74.656 103.536C74.56 103.355 74.416 103.093 74.224 102.752C74.1813 102.688 74.1387 102.683 74.096 102.736C73.4987 103.664 72.816 104.475 72.048 105.168C71.8667 105.328 71.6587 105.387 71.424 105.344C71.2 105.301 71.0293 105.173 70.912 104.96L70.848 104.848C70.72 104.624 70.6773 104.384 70.72 104.128C70.7627 103.883 70.88 103.664 71.072 103.472C71.84 102.725 72.464 101.899 72.944 100.992C72.976 100.907 72.9653 100.827 72.912 100.752C72.752 100.539 72.5867 100.341 72.416 100.16C72.4053 100.149 72.3893 100.144 72.368 100.144C72.3573 100.133 72.3413 100.133 72.32 100.144C72.2987 100.155 72.288 100.171 72.288 100.192C72.2773 100.213 72.2667 100.235 72.256 100.256C72.2453 100.277 72.24 100.299 72.24 100.32C72.1653 100.523 72.0213 100.645 71.808 100.688C71.5947 100.72 71.4187 100.656 71.28 100.496L71.12 100.32C70.7147 99.8933 70.5973 99.392 70.768 98.816C71.1093 97.7387 71.3867 96.5547 71.6 95.264C71.6213 95.1893 71.584 95.152 71.488 95.152H71.344ZM72.944 97.984C72.9227 98.0693 72.9493 98.144 73.024 98.208C73.248 98.4107 73.4613 98.624 73.664 98.848C73.6747 98.8693 73.696 98.88 73.728 98.88C73.76 98.88 73.7813 98.864 73.792 98.832C74.0907 97.7653 74.2773 96.5813 74.352 95.28C74.352 95.1947 74.3093 95.152 74.224 95.152H73.664C73.5787 95.152 73.5253 95.2 73.504 95.296C73.3547 96.192 73.168 97.088 72.944 97.984ZM90.128 96.928C89.328 97.792 88.928 98.832 88.928 100.048C88.928 100.763 89.0453 101.317 89.28 101.712C89.5253 102.096 89.8187 102.288 90.16 102.288C90.5973 102.288 91.0987 101.989 91.664 101.392C91.7173 101.328 91.7227 101.253 91.68 101.168C91.648 101.125 91.6267 101.083 91.616 101.04C91.104 99.6107 90.6507 98.256 90.256 96.976C90.2347 96.88 90.192 96.864 90.128 96.928ZM94.32 95.312C93.488 95.312 92.7307 95.4347 92.048 95.68C91.9627 95.712 91.9307 95.776 91.952 95.872C92.2507 96.896 92.6133 98.048 93.04 99.328C93.0613 99.392 93.0987 99.3867 93.152 99.312C93.792 98.2133 94.3733 96.9333 94.896 95.472C94.9067 95.44 94.9013 95.408 94.88 95.376C94.8693 95.344 94.848 95.328 94.816 95.328C94.7093 95.3173 94.544 95.312 94.32 95.312ZM89.952 104.272C89.1093 104.272 88.4053 103.904 87.84 103.168C87.2853 102.421 87.008 101.381 87.008 100.048C87.008 98.992 87.2267 98.016 87.664 97.12C88.1013 96.2133 88.7147 95.4507 89.504 94.832C89.5787 94.7787 89.6107 94.7147 89.6 94.64C89.3867 93.8507 89.232 93.2533 89.136 92.848C89.0827 92.6027 89.12 92.3733 89.248 92.16C89.3867 91.9467 89.5787 91.8187 89.824 91.776L89.968 91.744C90.2133 91.7013 90.4427 91.744 90.656 91.872C90.8693 92 91.0027 92.1867 91.056 92.432C91.088 92.5813 91.1413 92.8 91.216 93.088C91.2907 93.3653 91.3387 93.5573 91.36 93.664C91.3813 93.7387 91.4347 93.7653 91.52 93.744C92.384 93.4347 93.3173 93.28 94.32 93.28C94.7467 93.28 95.1253 93.3013 95.456 93.344C95.552 93.3653 95.6107 93.328 95.632 93.232C95.7173 92.944 95.8453 92.4907 96.016 91.872C96.08 91.6267 96.2187 91.4347 96.432 91.296C96.656 91.1573 96.8907 91.1147 97.136 91.168L97.264 91.2C97.5093 91.2533 97.696 91.3867 97.824 91.6C97.9627 91.8027 98 92.0213 97.936 92.256C97.7867 92.8747 97.6533 93.3707 97.536 93.744C97.5147 93.8293 97.5413 93.888 97.616 93.92C98.672 94.3787 99.4987 95.0507 100.096 95.936C100.693 96.8213 100.992 97.84 100.992 98.992C100.992 100.539 100.624 101.797 99.888 102.768C99.152 103.739 98.0907 104.395 96.704 104.736C96.4587 104.8 96.224 104.763 96 104.624C95.7867 104.485 95.648 104.288 95.584 104.032L95.552 103.92C95.488 103.696 95.52 103.483 95.648 103.28C95.7867 103.067 95.9733 102.928 96.208 102.864C98.0427 102.341 98.96 101.051 98.96 98.992C98.96 98.3093 98.784 97.696 98.432 97.152C98.0907 96.608 97.6053 96.1813 96.976 95.872C96.912 95.84 96.8587 95.8667 96.816 95.952C95.824 98.7147 94.7147 100.795 93.488 102.192C92.272 103.579 91.0933 104.272 89.952 104.272ZM103.808 95.472C103.563 95.472 103.349 95.3813 103.168 95.2C102.997 95.0187 102.912 94.8053 102.912 94.56C102.912 94.3147 102.997 94.1013 103.168 93.92C103.349 93.7387 103.563 93.648 103.808 93.648H106.24C106.325 93.648 106.368 93.6053 106.368 93.52V92.16C106.368 91.9147 106.459 91.7013 106.64 91.52C106.821 91.3387 107.035 91.248 107.28 91.248H107.488C107.733 91.248 107.947 91.3387 108.128 91.52C108.309 91.7013 108.4 91.9147 108.4 92.16V95.28C108.4 95.3013 108.411 95.3173 108.432 95.328C108.453 95.3387 108.475 95.3333 108.496 95.312C109.52 94.4053 110.32 93.7973 110.896 93.488C111.483 93.168 112.053 93.008 112.608 93.008C113.397 93.008 113.957 93.2587 114.288 93.76C114.629 94.2613 114.8 95.168 114.8 96.48C114.8 97.0667 114.731 97.76 114.592 98.56C114.443 99.456 114.368 100.149 114.368 100.64C114.368 101.675 114.565 102.192 114.96 102.192C115.205 102.192 115.573 101.989 116.064 101.584C116.245 101.435 116.453 101.371 116.688 101.392C116.923 101.413 117.109 101.52 117.248 101.712C117.408 101.925 117.472 102.165 117.44 102.432C117.419 102.688 117.312 102.901 117.12 103.072C116.139 103.904 115.221 104.32 114.368 104.32C113.621 104.32 113.077 104.064 112.736 103.552C112.405 103.029 112.24 102.128 112.24 100.848C112.24 100.293 112.309 99.6 112.448 98.768C112.597 97.904 112.672 97.2107 112.672 96.688C112.672 96.0907 112.619 95.6853 112.512 95.472C112.416 95.2587 112.272 95.152 112.08 95.152C111.675 95.152 110.48 96.0853 108.496 97.952C108.432 98.016 108.4 98.096 108.4 98.192V104.16C108.4 104.405 108.309 104.619 108.128 104.8C107.947 104.981 107.733 105.072 107.488 105.072H107.28C107.035 105.072 106.821 104.981 106.64 104.8C106.459 104.619 106.368 104.405 106.368 104.16V100.128C106.368 100.107 106.352 100.091 106.32 100.08C106.299 100.069 106.283 100.075 106.272 100.096C105.92 100.437 105.349 101.003 104.56 101.792C104.389 101.963 104.176 102.048 103.92 102.048C103.664 102.048 103.445 101.963 103.264 101.792L103.184 101.728C103.013 101.557 102.928 101.344 102.928 101.088C102.928 100.832 103.013 100.619 103.184 100.448C104.357 99.2747 105.387 98.2613 106.272 97.408C106.336 97.344 106.368 97.264 106.368 97.168V95.6C106.368 95.5147 106.325 95.472 106.24 95.472H103.808ZM133.008 91.152C133.061 91.2587 133.136 91.4133 133.232 91.616C133.339 91.8187 133.413 91.9627 133.456 92.048C133.563 92.2613 133.579 92.4747 133.504 92.688C133.429 92.9013 133.285 93.0613 133.072 93.168C132.859 93.2747 132.64 93.2907 132.416 93.216C132.203 93.1413 132.037 92.9973 131.92 92.784C131.824 92.592 131.669 92.304 131.456 91.92C131.349 91.7067 131.328 91.4933 131.392 91.28C131.467 91.056 131.611 90.8907 131.824 90.784C132.037 90.6773 132.261 90.6613 132.496 90.736C132.731 90.8107 132.901 90.9493 133.008 91.152ZM127.984 101.648V101.28C127.984 101.173 127.941 101.104 127.856 101.072C127.44 100.869 127.019 100.768 126.592 100.768C125.493 100.768 124.944 101.152 124.944 101.92C124.944 102.773 125.493 103.2 126.592 103.2C127.072 103.2 127.424 103.077 127.648 102.832C127.872 102.587 127.984 102.192 127.984 101.648ZM130.144 96.272C130.059 96.272 130.016 96.3147 130.016 96.4V100.112C130.016 100.197 130.053 100.277 130.128 100.352C130.768 100.875 131.451 101.504 132.176 102.24C132.347 102.411 132.432 102.624 132.432 102.88C132.432 103.136 132.347 103.355 132.176 103.536L132.112 103.6C131.931 103.771 131.717 103.856 131.472 103.856C131.227 103.856 131.013 103.765 130.832 103.584C130.459 103.189 130.192 102.917 130.032 102.768C130.011 102.747 129.984 102.741 129.952 102.752C129.92 102.763 129.899 102.784 129.888 102.816C129.536 104.277 128.475 105.008 126.704 105.008C125.52 105.008 124.603 104.736 123.952 104.192C123.301 103.659 122.976 102.901 122.976 101.92C122.976 100.992 123.296 100.261 123.936 99.728C124.587 99.1947 125.509 98.928 126.704 98.928C127.109 98.928 127.493 98.9813 127.856 99.088C127.941 99.1093 127.984 99.072 127.984 98.976V96.4C127.984 96.3147 127.936 96.272 127.84 96.272H124.176C123.931 96.272 123.717 96.1813 123.536 96C123.355 95.8187 123.264 95.6053 123.264 95.36C123.264 95.1147 123.355 94.9013 123.536 94.72C123.717 94.5387 123.931 94.448 124.176 94.448H127.84C127.936 94.448 127.984 94.4053 127.984 94.32V92.48C127.984 92.2347 128.075 92.0213 128.256 91.84C128.437 91.6587 128.651 91.568 128.896 91.568H128.976C129.061 91.568 129.131 91.5307 129.184 91.456C129.28 91.3173 129.381 91.2213 129.488 91.168C129.701 91.0613 129.915 91.0453 130.128 91.12C130.352 91.1947 130.523 91.3387 130.64 91.552C130.683 91.648 130.757 91.792 130.864 91.984C130.971 92.1653 131.045 92.304 131.088 92.4C131.195 92.6133 131.211 92.8267 131.136 93.04C131.061 93.2533 130.917 93.408 130.704 93.504C130.523 93.6 130.331 93.6213 130.128 93.568C130.053 93.5467 130.016 93.5787 130.016 93.664V94.32C130.016 94.4053 130.059 94.448 130.144 94.448H131.792C132.037 94.448 132.251 94.5387 132.432 94.72C132.613 94.9013 132.704 95.1147 132.704 95.36C132.704 95.6053 132.613 95.8187 132.432 96C132.251 96.1813 132.037 96.272 131.792 96.272H130.144ZM120.768 104.912C120.512 104.944 120.277 104.885 120.064 104.736C119.851 104.597 119.717 104.405 119.664 104.16C119.269 102.357 119.072 100.437 119.072 98.4C119.072 96.3307 119.264 94.4213 119.648 92.672C119.701 92.416 119.835 92.2133 120.048 92.064C120.272 91.9147 120.512 91.856 120.768 91.888L120.96 91.904C121.195 91.936 121.381 92.0533 121.52 92.256C121.659 92.448 121.701 92.6613 121.648 92.896C121.275 94.5813 121.088 96.416 121.088 98.4C121.088 100.384 121.275 102.219 121.648 103.904C121.701 104.139 121.659 104.352 121.52 104.544C121.381 104.747 121.195 104.864 120.96 104.896L120.768 104.912ZM146.576 102.128C146.459 99.216 145.909 96.5387 144.928 94.096C144.843 93.872 144.848 93.6533 144.944 93.44C145.04 93.216 145.205 93.0667 145.44 92.992L145.664 92.928C145.909 92.8533 146.149 92.8747 146.384 92.992C146.629 93.0987 146.805 93.2693 146.912 93.504C148.011 96.0747 148.608 98.9493 148.704 102.128C148.715 102.373 148.629 102.587 148.448 102.768C148.267 102.949 148.053 103.04 147.808 103.04H147.488C147.243 103.04 147.029 102.949 146.848 102.768C146.677 102.587 146.587 102.373 146.576 102.128ZM139.328 104.752C138.421 104.752 137.579 104.133 136.8 102.896C136.032 101.659 135.648 100.16 135.648 98.4C135.648 96.7893 135.835 95.2107 136.208 93.664C136.272 93.408 136.411 93.2107 136.624 93.072C136.848 92.9227 137.093 92.864 137.36 92.896L137.632 92.928C137.867 92.9493 138.048 93.0613 138.176 93.264C138.315 93.4667 138.357 93.6853 138.304 93.92C137.963 95.4347 137.792 96.928 137.792 98.4C137.792 99.584 137.979 100.581 138.352 101.392C138.736 102.203 139.115 102.608 139.488 102.608C139.723 102.608 140.027 102.384 140.4 101.936C140.773 101.477 141.152 100.816 141.536 99.952C141.643 99.7173 141.808 99.552 142.032 99.456C142.267 99.3493 142.501 99.3387 142.736 99.424L142.912 99.488C143.147 99.5733 143.317 99.7333 143.424 99.968C143.531 100.192 143.536 100.416 143.44 100.64C142.896 101.931 142.245 102.939 141.488 103.664C140.731 104.389 140.011 104.752 139.328 104.752ZM162.576 102.128C162.459 99.216 161.909 96.5387 160.928 94.096C160.843 93.872 160.848 93.6533 160.944 93.44C161.04 93.216 161.205 93.0667 161.44 92.992L161.664 92.928C161.909 92.8533 162.149 92.8747 162.384 92.992C162.629 93.0987 162.805 93.2693 162.912 93.504C164.011 96.0747 164.608 98.9493 164.704 102.128C164.715 102.373 164.629 102.587 164.448 102.768C164.267 102.949 164.053 103.04 163.808 103.04H163.488C163.243 103.04 163.029 102.949 162.848 102.768C162.677 102.587 162.587 102.373 162.576 102.128ZM155.328 104.752C154.421 104.752 153.579 104.133 152.8 102.896C152.032 101.659 151.648 100.16 151.648 98.4C151.648 96.7893 151.835 95.2107 152.208 93.664C152.272 93.408 152.411 93.2107 152.624 93.072C152.848 92.9227 153.093 92.864 153.36 92.896L153.632 92.928C153.867 92.9493 154.048 93.0613 154.176 93.264C154.315 93.4667 154.357 93.6853 154.304 93.92C153.963 95.4347 153.792 96.928 153.792 98.4C153.792 99.584 153.979 100.581 154.352 101.392C154.736 102.203 155.115 102.608 155.488 102.608C155.723 102.608 156.027 102.384 156.4 101.936C156.773 101.477 157.152 100.816 157.536 99.952C157.643 99.7173 157.808 99.552 158.032 99.456C158.267 99.3493 158.501 99.3387 158.736 99.424L158.912 99.488C159.147 99.5733 159.317 99.7333 159.424 99.968C159.531 100.192 159.536 100.416 159.44 100.64C158.896 101.931 158.245 102.939 157.488 103.664C156.731 104.389 156.011 104.752 155.328 104.752ZM168.08 95.888C167.835 95.888 167.621 95.8027 167.44 95.632C167.259 95.4507 167.168 95.2373 167.168 94.992C167.168 94.7467 167.259 94.5333 167.44 94.352C167.621 94.1707 167.835 94.08 168.08 94.08H169.904C169.989 94.08 170.043 94.032 170.064 93.936C170.224 93.232 170.368 92.5013 170.496 91.744C170.549 91.4987 170.672 91.3013 170.864 91.152C171.067 90.992 171.296 90.9227 171.552 90.944L171.664 90.96C171.909 90.9813 172.107 91.0933 172.256 91.296C172.405 91.488 172.459 91.7067 172.416 91.952C172.277 92.7627 172.16 93.4293 172.064 93.952C172.043 94.0373 172.08 94.08 172.176 94.08H173.088C173.632 94.08 174.037 94.08 174.304 94.08C174.581 94.08 174.885 94.112 175.216 94.176C175.547 94.24 175.771 94.2933 175.888 94.336C176.016 94.3787 176.16 94.5013 176.32 94.704C176.491 94.9067 176.592 95.088 176.624 95.248C176.656 95.408 176.699 95.696 176.752 96.112C176.805 96.5173 176.832 96.8907 176.832 97.232C176.832 97.5733 176.832 98.0853 176.832 98.768C176.832 100.816 176.581 102.325 176.08 103.296C175.579 104.267 174.901 104.752 174.048 104.752C173.408 104.752 172.571 104.597 171.536 104.288C171.291 104.213 171.109 104.064 170.992 103.84C170.875 103.616 170.853 103.376 170.928 103.12L170.96 103.024C171.035 102.789 171.179 102.619 171.392 102.512C171.616 102.395 171.851 102.373 172.096 102.448C172.8 102.661 173.312 102.768 173.632 102.768C173.813 102.768 173.979 102.635 174.128 102.368C174.277 102.101 174.405 101.632 174.512 100.96C174.629 100.277 174.688 99.44 174.688 98.448C174.688 97.168 174.629 96.4213 174.512 96.208C174.405 95.9947 174.005 95.888 173.312 95.888H171.776C171.691 95.888 171.637 95.9307 171.616 96.016C170.955 98.7787 170.117 101.451 169.104 104.032C169.008 104.277 168.843 104.448 168.608 104.544C168.384 104.651 168.155 104.661 167.92 104.576L167.808 104.544C167.573 104.469 167.408 104.315 167.312 104.08C167.216 103.856 167.211 103.627 167.296 103.392C168.181 101.056 168.944 98.5973 169.584 96.016C169.605 95.9307 169.573 95.888 169.488 95.888H168.08ZM179.44 100.544C178.875 98.5067 178.192 96.4267 177.392 94.304C177.307 94.08 177.317 93.8613 177.424 93.648C177.531 93.424 177.701 93.2747 177.936 93.2L178.144 93.136C178.389 93.0613 178.629 93.0827 178.864 93.2C179.099 93.3173 179.259 93.4987 179.344 93.744C180.08 95.664 180.763 97.776 181.392 100.08C181.456 100.315 181.424 100.544 181.296 100.768C181.168 100.981 180.981 101.115 180.736 101.168L180.544 101.2C180.299 101.253 180.069 101.216 179.856 101.088C179.643 100.96 179.504 100.779 179.44 100.544ZM183.312 100.128C184.4 98.848 185.36 97.776 186.192 96.912C186.267 96.8373 186.304 96.7573 186.304 96.672V95.504C186.304 95.408 186.256 95.36 186.16 95.36H184C183.765 95.36 183.563 95.28 183.392 95.12C183.232 94.9493 183.152 94.7467 183.152 94.512C183.152 94.2773 183.232 94.0747 183.392 93.904C183.563 93.7333 183.765 93.648 184 93.648H186.16C186.256 93.648 186.304 93.6053 186.304 93.52V92.208C186.304 91.9627 186.389 91.7547 186.56 91.584C186.741 91.4027 186.955 91.312 187.2 91.312H187.312C187.557 91.312 187.771 91.4027 187.952 91.584C188.133 91.7547 188.224 91.9627 188.224 92.208V94.864C188.224 94.9387 188.256 94.9547 188.32 94.912C189.173 94.208 189.931 93.7173 190.592 93.44C191.264 93.152 191.931 93.008 192.592 93.008C194.053 93.008 195.12 93.4613 195.792 94.368C196.464 95.264 196.8 96.7307 196.8 98.768C196.8 100.539 196.389 101.909 195.568 102.88C194.757 103.84 193.659 104.32 192.272 104.32C191.653 104.32 191.051 104.224 190.464 104.032C190.219 103.957 190.048 103.803 189.952 103.568C189.856 103.323 189.851 103.072 189.936 102.816L189.968 102.72C190.043 102.496 190.187 102.336 190.4 102.24C190.624 102.133 190.859 102.112 191.104 102.176C191.541 102.293 191.931 102.352 192.272 102.352C193.04 102.352 193.637 102.053 194.064 101.456C194.501 100.859 194.72 99.9627 194.72 98.768C194.72 97.328 194.549 96.3413 194.208 95.808C193.877 95.264 193.301 94.992 192.48 94.992C191.957 94.992 191.376 95.1787 190.736 95.552C190.107 95.9253 189.301 96.5867 188.32 97.536C188.256 97.6 188.224 97.68 188.224 97.776V104.112C188.224 104.357 188.133 104.565 187.952 104.736C187.771 104.917 187.557 105.008 187.312 105.008H187.2C186.955 105.008 186.741 104.917 186.56 104.736C186.389 104.565 186.304 104.357 186.304 104.112V99.792C186.304 99.7707 186.288 99.7547 186.256 99.744C186.235 99.7227 186.219 99.7227 186.208 99.744C186.016 99.9573 185.531 100.512 184.752 101.408C184.592 101.6 184.384 101.707 184.128 101.728C183.883 101.749 183.669 101.675 183.488 101.504L183.408 101.424C183.227 101.253 183.125 101.045 183.104 100.8C183.083 100.544 183.152 100.32 183.312 100.128ZM200.08 95.888C199.835 95.888 199.621 95.8027 199.44 95.632C199.259 95.4507 199.168 95.2373 199.168 94.992C199.168 94.7467 199.259 94.5333 199.44 94.352C199.621 94.1707 199.835 94.08 200.08 94.08H201.904C201.989 94.08 202.043 94.032 202.064 93.936C202.224 93.232 202.368 92.5013 202.496 91.744C202.549 91.4987 202.672 91.3013 202.864 91.152C203.067 90.992 203.296 90.9227 203.552 90.944L203.664 90.96C203.909 90.9813 204.107 91.0933 204.256 91.296C204.405 91.488 204.459 91.7067 204.416 91.952C204.277 92.7627 204.16 93.4293 204.064 93.952C204.043 94.0373 204.08 94.08 204.176 94.08H205.088C205.632 94.08 206.037 94.08 206.304 94.08C206.581 94.08 206.885 94.112 207.216 94.176C207.547 94.24 207.771 94.2933 207.888 94.336C208.016 94.3787 208.16 94.5013 208.32 94.704C208.491 94.9067 208.592 95.088 208.624 95.248C208.656 95.408 208.699 95.696 208.752 96.112C208.805 96.5173 208.832 96.8907 208.832 97.232C208.832 97.5733 208.832 98.0853 208.832 98.768C208.832 100.816 208.581 102.325 208.08 103.296C207.579 104.267 206.901 104.752 206.048 104.752C205.408 104.752 204.571 104.597 203.536 104.288C203.291 104.213 203.109 104.064 202.992 103.84C202.875 103.616 202.853 103.376 202.928 103.12L202.96 103.024C203.035 102.789 203.179 102.619 203.392 102.512C203.616 102.395 203.851 102.373 204.096 102.448C204.8 102.661 205.312 102.768 205.632 102.768C205.813 102.768 205.979 102.635 206.128 102.368C206.277 102.101 206.405 101.632 206.512 100.96C206.629 100.277 206.688 99.44 206.688 98.448C206.688 97.168 206.629 96.4213 206.512 96.208C206.405 95.9947 206.005 95.888 205.312 95.888H203.776C203.691 95.888 203.637 95.9307 203.616 96.016C202.955 98.7787 202.117 101.451 201.104 104.032C201.008 104.277 200.843 104.448 200.608 104.544C200.384 104.651 200.155 104.661 199.92 104.576L199.808 104.544C199.573 104.469 199.408 104.315 199.312 104.08C199.216 103.856 199.211 103.627 199.296 103.392C200.181 101.056 200.944 98.5973 201.584 96.016C201.605 95.9307 201.573 95.888 201.488 95.888H200.08ZM211.44 100.544C210.875 98.5067 210.192 96.4267 209.392 94.304C209.307 94.08 209.317 93.8613 209.424 93.648C209.531 93.424 209.701 93.2747 209.936 93.2L210.144 93.136C210.389 93.0613 210.629 93.0827 210.864 93.2C211.099 93.3173 211.259 93.4987 211.344 93.744C212.08 95.664 212.763 97.776 213.392 100.08C213.456 100.315 213.424 100.544 213.296 100.768C213.168 100.981 212.981 101.115 212.736 101.168L212.544 101.2C212.299 101.253 212.069 101.216 211.856 101.088C211.643 100.96 211.504 100.779 211.44 100.544ZM217.136 100.08C216.891 100.027 216.693 99.8987 216.544 99.696C216.405 99.4827 216.357 99.2533 216.4 99.008C216.656 97.536 216.832 96.464 216.928 95.792C216.971 95.536 217.088 95.328 217.28 95.168C217.472 94.9973 217.696 94.9227 217.952 94.944L218.224 94.976C218.469 94.9973 218.667 95.104 218.816 95.296C218.976 95.488 219.04 95.7067 219.008 95.952C218.869 96.9653 218.768 97.6747 218.704 98.08V98.112H218.72L218.736 98.096C219.44 97.616 220.219 97.2373 221.072 96.96C221.936 96.672 222.747 96.528 223.504 96.528C225.093 96.528 226.261 96.8427 227.008 97.472C227.765 98.0907 228.144 99.04 228.144 100.32C228.144 101.739 227.547 102.843 226.352 103.632C225.157 104.411 223.424 104.8 221.152 104.8C220.309 104.8 219.387 104.757 218.384 104.672C218.128 104.651 217.915 104.544 217.744 104.352C217.584 104.16 217.515 103.936 217.536 103.68V103.648C217.547 103.403 217.648 103.2 217.84 103.04C218.043 102.88 218.267 102.811 218.512 102.832C219.739 102.939 220.619 102.992 221.152 102.992C222.624 102.992 223.755 102.757 224.544 102.288C225.344 101.808 225.744 101.152 225.744 100.32C225.744 99.008 224.891 98.352 223.184 98.352C222 98.352 220.581 98.8427 218.928 99.824C218.373 100.144 217.819 100.24 217.264 100.112L217.136 100.08ZM219.408 91.952C221.381 92.1653 223.317 92.288 225.216 92.32C225.461 92.32 225.669 92.4107 225.84 92.592C226.021 92.7733 226.112 92.9867 226.112 93.232C226.112 93.4773 226.021 93.6907 225.84 93.872C225.669 94.0427 225.461 94.128 225.216 94.128C223.157 94.096 221.147 93.9733 219.184 93.76C218.928 93.728 218.72 93.6107 218.56 93.408C218.411 93.2053 218.352 92.9813 218.384 92.736C218.416 92.4907 218.533 92.2933 218.736 92.144C218.939 91.9947 219.163 91.9307 219.408 91.952ZM240.224 101.28V101.216C240.224 101.12 240.181 101.056 240.096 101.024C239.531 100.747 239.003 100.608 238.512 100.608C237.925 100.608 237.483 100.72 237.184 100.944C236.896 101.168 236.752 101.477 236.752 101.872C236.752 102.288 236.907 102.613 237.216 102.848C237.525 103.083 237.957 103.2 238.512 103.2C239.163 103.2 239.611 103.067 239.856 102.8C240.101 102.533 240.224 102.027 240.224 101.28ZM244.336 93.376C244.592 93.3973 244.795 93.5093 244.944 93.712C245.104 93.9147 245.168 94.144 245.136 94.4C245.104 94.6453 244.987 94.8427 244.784 94.992C244.581 95.1413 244.357 95.2 244.112 95.168C243.515 95.0933 242.939 95.0507 242.384 95.04C242.299 95.04 242.256 95.088 242.256 95.184V100.032C242.256 100.117 242.288 100.187 242.352 100.24C243.077 100.688 243.845 101.264 244.656 101.968C244.848 102.128 244.949 102.336 244.96 102.592C244.971 102.848 244.891 103.067 244.72 103.248L244.672 103.296C244.501 103.477 244.293 103.579 244.048 103.6C243.803 103.621 243.584 103.552 243.392 103.392C243.232 103.253 243.013 103.077 242.736 102.864C242.459 102.64 242.299 102.512 242.256 102.48C242.192 102.437 242.149 102.448 242.128 102.512C241.957 103.333 241.573 103.936 240.976 104.32C240.389 104.715 239.568 104.912 238.512 104.912C237.328 104.912 236.4 104.64 235.728 104.096C235.067 103.552 234.736 102.811 234.736 101.872C234.736 100.955 235.061 100.229 235.712 99.696C236.373 99.152 237.307 98.88 238.512 98.88C238.981 98.88 239.515 98.9707 240.112 99.152C240.187 99.1733 240.224 99.1413 240.224 99.056V94.08C240.224 93.8347 240.309 93.6213 240.48 93.44C240.661 93.2587 240.875 93.1733 241.12 93.184C242.485 93.2267 243.557 93.2907 244.336 93.376ZM231.68 102.672C231.445 102.597 231.28 102.448 231.184 102.224C231.088 102 231.083 101.771 231.168 101.536C231.979 99.4773 232.715 97.3387 233.376 95.12C233.397 95.0347 233.365 94.992 233.28 94.992H232.096C231.851 94.992 231.637 94.9013 231.456 94.72C231.285 94.5387 231.2 94.3253 231.2 94.08C231.2 93.8347 231.285 93.6213 231.456 93.44C231.637 93.2587 231.851 93.168 232.096 93.168H233.792C233.888 93.168 233.947 93.1253 233.968 93.04C234.011 92.9013 234.064 92.6933 234.128 92.416C234.192 92.1387 234.245 91.9307 234.288 91.792C234.352 91.5467 234.491 91.3547 234.704 91.216C234.917 91.0667 235.152 91.008 235.408 91.04H235.52C235.765 91.072 235.952 91.1893 236.08 91.392C236.219 91.5947 236.261 91.8133 236.208 92.048C236.101 92.496 236.021 92.8267 235.968 93.04C235.947 93.1253 235.984 93.168 236.08 93.168H237.696C237.941 93.168 238.155 93.2587 238.336 93.44C238.517 93.6213 238.608 93.8347 238.608 94.08C238.608 94.3253 238.517 94.5387 238.336 94.72C238.155 94.9013 237.941 94.992 237.696 94.992H235.584C235.488 94.992 235.429 95.04 235.408 95.136C234.747 97.4827 233.952 99.824 233.024 102.16C232.928 102.395 232.763 102.571 232.528 102.688C232.304 102.795 232.069 102.805 231.824 102.72L231.68 102.672ZM258.576 102.128C258.459 99.216 257.909 96.5387 256.928 94.096C256.843 93.872 256.848 93.6533 256.944 93.44C257.04 93.216 257.205 93.0667 257.44 92.992L257.664 92.928C257.909 92.8533 258.149 92.8747 258.384 92.992C258.629 93.0987 258.805 93.2693 258.912 93.504C260.011 96.0747 260.608 98.9493 260.704 102.128C260.715 102.373 260.629 102.587 260.448 102.768C260.267 102.949 260.053 103.04 259.808 103.04H259.488C259.243 103.04 259.029 102.949 258.848 102.768C258.677 102.587 258.587 102.373 258.576 102.128ZM251.328 104.752C250.421 104.752 249.579 104.133 248.8 102.896C248.032 101.659 247.648 100.16 247.648 98.4C247.648 96.7893 247.835 95.2107 248.208 93.664C248.272 93.408 248.411 93.2107 248.624 93.072C248.848 92.9227 249.093 92.864 249.36 92.896L249.632 92.928C249.867 92.9493 250.048 93.0613 250.176 93.264C250.315 93.4667 250.357 93.6853 250.304 93.92C249.963 95.4347 249.792 96.928 249.792 98.4C249.792 99.584 249.979 100.581 250.352 101.392C250.736 102.203 251.115 102.608 251.488 102.608C251.723 102.608 252.027 102.384 252.4 101.936C252.773 101.477 253.152 100.816 253.536 99.952C253.643 99.7173 253.808 99.552 254.032 99.456C254.267 99.3493 254.501 99.3387 254.736 99.424L254.912 99.488C255.147 99.5733 255.317 99.7333 255.424 99.968C255.531 100.192 255.536 100.416 255.44 100.64C254.896 101.931 254.245 102.939 253.488 103.664C252.731 104.389 252.011 104.752 251.328 104.752ZM274.96 99.6C274.715 99.6 274.501 99.5093 274.32 99.328C274.139 99.1467 274.048 98.9333 274.048 98.688V97.792C274.048 97.5467 274.139 97.3333 274.32 97.152C274.501 96.9707 274.715 96.88 274.96 96.88H275.696C275.941 96.88 276.155 96.9707 276.336 97.152C276.517 97.3333 276.608 97.5467 276.608 97.792V98.688C276.608 98.9333 276.517 99.1467 276.336 99.328C276.155 99.5093 275.941 99.6 275.696 99.6H274.96ZM269.632 99.6C269.387 99.6 269.173 99.5093 268.992 99.328C268.811 99.1467 268.72 98.9333 268.72 98.688V97.792C268.72 97.5467 268.811 97.3333 268.992 97.152C269.173 96.9707 269.387 96.88 269.632 96.88H270.368C270.613 96.88 270.827 96.9707 271.008 97.152C271.189 97.3333 271.28 97.5467 271.28 97.792V98.688C271.28 98.9333 271.189 99.1467 271.008 99.328C270.827 99.5093 270.613 99.6 270.368 99.6H269.632ZM264.304 99.6C264.059 99.6 263.845 99.5093 263.664 99.328C263.483 99.1467 263.392 98.9333 263.392 98.688V97.792C263.392 97.5467 263.483 97.3333 263.664 97.152C263.845 96.9707 264.059 96.88 264.304 96.88H265.04C265.285 96.88 265.499 96.9707 265.68 97.152C265.861 97.3333 265.952 97.5467 265.952 97.792V98.688C265.952 98.9333 265.861 99.1467 265.68 99.328C265.499 99.5093 265.285 99.6 265.04 99.6H264.304Z" fill="#4C1015"/>
</svg>
