<svg width="300" height="200" viewBox="0 0 300 200" fill="none" xmlns="http://www.w3.org/2000/svg">
<path d="M96.8289 171.111C105.75 171.111 113.013 168.855 117.355 164.821C127.145 168.103 137.842 169.709 150 169.709C174.711 169.709 188.132 163.077 197.013 158.667C197.842 158.256 198.671 157.846 199.461 157.47C200.211 157.094 201.276 156.923 202.816 156.923C203.132 156.923 203.447 156.923 203.763 156.957C206.053 157.094 208.303 157.128 210.513 157.128C237.711 157.128 257.211 148.034 266.882 130.872C268.382 128.205 268.382 128.205 271.145 126.735C290.289 116.513 300 102.427 300 84.8547C300 67.2821 290.289 53.1966 271.105 42.9744C268.342 41.5043 268.342 41.5043 266.842 38.8376C257.171 21.641 237.671 12.5812 210.474 12.5812C208.263 12.5812 206.013 12.6496 203.724 12.7521C203.408 12.7521 203.092 12.7863 202.776 12.7863C201.237 12.7863 200.171 12.6154 199.421 12.2393C198.632 11.8632 197.842 11.453 196.974 11.0427C188.092 6.63248 174.671 0 150 0C125.329 0 111.868 6.63248 103.026 11.0427C102.197 11.453 101.368 11.8632 100.579 12.2393C99.8289 12.6154 98.7632 12.7863 97.2237 12.7863C96.9079 12.7863 96.5921 12.7863 96.2763 12.7521C93.9868 12.6154 91.7368 12.5812 89.5263 12.5812C62.3289 12.5812 42.8289 21.6752 33.1579 38.8376C31.6579 41.5043 31.6579 41.5043 28.8947 42.9744C9.71051 53.1966 0 67.2821 0 84.8547C0 102.427 9.71051 116.513 28.8947 126.735C31.6579 128.205 31.6579 128.205 33.1579 130.872C40.5 143.932 53.8421 152.444 71.8816 155.692C72.1974 163.453 79.9342 171.111 96.8289 171.111Z" fill="#4C1015"/>
<path d="M83.4474 189.094C94.2238 189.094 99.0396 183.863 99.0396 178.667C99.0396 173.47 94.2238 168.239 83.4474 168.239C72.6711 168.239 67.8553 173.47 67.8553 178.667C67.8553 183.863 72.6711 189.094 83.4474 189.094Z" fill="#4C1015"/>
<path d="M70.2631 199.966C77.4473 199.966 80.7236 196.136 80.7236 192.581C80.7236 189.025 77.4473 185.196 70.2631 185.196C63.0789 185.196 59.8026 189.025 59.8026 192.581C59.8026 196.136 63.0789 199.966 70.2631 199.966Z" fill="#4C1015"/>
<path d="M31.2237 46.2564C34.8158 44.3419 35.3289 43.7949 37.1447 40.5129C49.8553 17.9829 78.0395 15.6582 96.0395 16.6154C98.5658 16.718 100.816 16.547 102.75 15.624C111.671 11.3505 124.184 3.86328 150 3.86328C175.816 3.86328 188.329 11.3163 197.25 15.624C199.184 16.547 201.434 16.718 203.961 16.6154C221.961 15.6582 250.145 17.9829 262.816 40.547C264.671 43.8291 265.184 44.3761 268.737 46.2906C280.776 52.718 295.5 64.0342 295.5 84.8889C295.5 105.744 280.776 117.06 268.737 123.487C265.145 125.402 264.632 125.949 262.816 129.231C250.105 151.795 221.961 154.12 203.961 153.128C201.434 153.026 199.184 153.197 197.25 154.12C188.329 158.427 175.816 165.88 150 165.88C134.526 165.88 123.868 163.214 115.855 160.137C113.171 164.342 106.737 167.282 96.8289 167.282C83.3684 167.282 76.3421 161.88 76.3421 155.214C76.3421 154.291 76.5 153.402 76.7763 152.513C61.8158 150.598 45.8684 144.65 37.1842 129.197C35.329 125.915 34.8158 125.368 31.2632 123.453C19.2237 117.026 4.50003 105.709 4.50003 84.8547C4.46057 64.0342 19.1842 52.6838 31.2237 46.2564Z" fill="white"/>
<path d="M72.3552 178.667C72.3552 175.043 76.1842 172.137 83.4868 172.137C90.7895 172.137 94.6184 175.077 94.6184 178.667C94.6184 182.291 90.7895 185.231 83.4868 185.231C76.1447 185.197 72.3552 182.291 72.3552 178.667Z" fill="white"/>
<path d="M70.2631 196.102C66.9712 196.102 64.3026 194.526 64.3026 192.581C64.3026 190.636 66.9712 189.06 70.2631 189.06C73.555 189.06 76.2236 190.636 76.2236 192.581C76.2236 194.526 73.555 196.102 70.2631 196.102Z" fill="white"/>
<path d="M56.272 55.888C56.5173 55.888 56.7253 55.9787 56.896 56.16C57.0773 56.3413 57.168 56.5547 57.168 56.8V60.272C57.168 62.8747 56.5653 64.864 55.36 66.24C54.1653 67.6053 52.288 68.4747 49.728 68.848C49.472 68.8907 49.232 68.8373 49.008 68.688C48.7947 68.5387 48.6613 68.336 48.608 68.08L48.576 67.872C48.5227 67.6373 48.56 67.424 48.688 67.232C48.8267 67.0293 49.0187 66.9067 49.264 66.864C51.3653 66.512 52.8267 65.8507 53.648 64.88C54.4693 63.9093 54.88 62.3893 54.88 60.32V56.8C54.88 56.5547 54.9707 56.3413 55.152 56.16C55.3333 55.9787 55.5467 55.888 55.792 55.888H56.272ZM47.728 63.088C47.4827 63.088 47.2693 63.0027 47.088 62.832C46.9173 62.6507 46.832 62.4373 46.832 62.192V56.8C46.832 56.5547 46.9173 56.3413 47.088 56.16C47.2693 55.9787 47.4827 55.888 47.728 55.888H48.16C48.4053 55.888 48.6187 55.9787 48.8 56.16C48.9813 56.3413 49.072 56.5547 49.072 56.8V62.192C49.072 62.4373 48.9813 62.6507 48.8 62.832C48.6187 63.0027 48.4053 63.088 48.16 63.088H47.728ZM62.592 67.888L62.448 67.488C62.3627 67.264 62.3733 67.0453 62.48 66.832C62.5973 66.608 62.7733 66.464 63.008 66.4C65.5573 65.696 67.4453 64.6187 68.672 63.168C69.9093 61.7067 70.6933 59.5947 71.024 56.832C71.056 56.5867 71.168 56.3893 71.36 56.24C71.552 56.08 71.7707 56.0107 72.016 56.032L72.56 56.08C72.8053 56.1013 73.008 56.2133 73.168 56.416C73.3387 56.608 73.408 56.8267 73.376 57.072C72.9813 60.336 72.032 62.8533 70.528 64.624C69.0347 66.3947 66.7787 67.696 63.76 68.528C63.5147 68.592 63.28 68.56 63.056 68.432C62.832 68.3147 62.6773 68.1333 62.592 67.888ZM86.56 56.096C86.784 55.9787 87.0133 55.9573 87.248 56.032C87.4933 56.1067 87.6747 56.256 87.792 56.48C87.9947 56.832 88.208 57.2373 88.432 57.696C88.5493 57.92 88.5653 58.1493 88.48 58.384C88.4053 58.6187 88.256 58.7893 88.032 58.896L87.872 58.976C87.648 59.0933 87.4133 59.1147 87.168 59.04C86.9333 58.9547 86.7573 58.8 86.64 58.576C86.576 58.4373 86.4693 58.2347 86.32 57.968C86.1707 57.7013 86.064 57.504 86 57.376C85.8827 57.1627 85.856 56.9387 85.92 56.704C85.9947 56.4587 86.144 56.2827 86.368 56.176L86.56 56.096ZM89.36 55.456C89.584 55.3387 89.8133 55.3173 90.048 55.392C90.2933 55.4667 90.4747 55.616 90.592 55.84C90.8907 56.3947 91.1147 56.816 91.264 57.104C91.3813 57.328 91.3973 57.5573 91.312 57.792C91.2373 58.0267 91.088 58.1973 90.864 58.304L90.656 58.416C90.432 58.5227 90.1973 58.5387 89.952 58.464C89.7173 58.3787 89.5413 58.224 89.424 58L88.752 56.752C88.6347 56.5387 88.6133 56.3147 88.688 56.08C88.7627 55.8453 88.912 55.6693 89.136 55.552L89.36 55.456ZM77.168 65.344C76.9653 65.2053 76.848 65.0133 76.816 64.768C76.784 64.5227 76.8427 64.304 76.992 64.112C77.2907 63.7067 77.7227 63.1147 78.288 62.336C78.8533 61.5573 79.1627 61.136 79.216 61.072C80.272 59.5573 80.9653 58.6453 81.296 58.336C81.6373 58.0267 82.112 57.872 82.72 57.872C83.1467 57.872 83.4987 57.936 83.776 58.064C84.0533 58.192 84.3467 58.4 84.656 58.688C84.9653 58.976 85.5253 59.5627 86.336 60.448C87.7867 62.0373 89.3493 63.6853 91.024 65.392C91.1947 65.5733 91.28 65.792 91.28 66.048C91.28 66.2933 91.1947 66.5067 91.024 66.688L90.72 67.008C90.5387 67.1893 90.3253 67.28 90.08 67.28C89.8453 67.28 89.6373 67.1947 89.456 67.024C88.112 65.648 86.5387 63.9733 84.736 62C84.032 61.2213 83.5573 60.72 83.312 60.496C83.0773 60.272 82.88 60.16 82.72 60.16C82.592 60.16 82.4213 60.2933 82.208 60.56C82.0053 60.816 81.6373 61.3173 81.104 62.064C80.176 63.3867 79.3867 64.48 78.736 65.344C78.5867 65.5467 78.384 65.6693 78.128 65.712C77.872 65.744 77.6427 65.6853 77.44 65.536L77.168 65.344ZM94.288 63.312C94.0427 63.312 93.8293 63.2213 93.648 63.04C93.4773 62.8587 93.392 62.6453 93.392 62.4V62.08C93.392 61.8347 93.4773 61.6213 93.648 61.44C93.8293 61.2587 94.0427 61.168 94.288 61.168H105.712C105.957 61.168 106.165 61.2587 106.336 61.44C106.517 61.6213 106.608 61.8347 106.608 62.08V62.4C106.608 62.6453 106.517 62.8587 106.336 63.04C106.165 63.2213 105.957 63.312 105.712 63.312H94.288ZM122.064 58.048C122.309 58.0907 122.501 58.2187 122.64 58.432C122.789 58.6347 122.837 58.8533 122.784 59.088C122.133 62.0853 120.949 64.3147 119.232 65.776C117.515 67.2373 115.008 68.16 111.712 68.544C111.456 68.576 111.227 68.512 111.024 68.352C110.821 68.2027 110.699 68 110.656 67.744L110.624 67.504C110.581 67.2693 110.635 67.056 110.784 66.864C110.933 66.672 111.131 66.56 111.376 66.528C114.245 66.1973 116.384 65.4507 117.792 64.288C119.211 63.1147 120.197 61.264 120.752 58.736C120.805 58.4907 120.933 58.2987 121.136 58.16C121.349 58.0107 121.579 57.9573 121.824 58L122.064 58.048ZM110.736 61.616C110.491 61.5733 110.293 61.4507 110.144 61.248C110.005 61.0453 109.963 60.8213 110.016 60.576L110.032 60.464C110.075 60.2187 110.208 60.0213 110.432 59.872C110.656 59.7227 110.891 59.6747 111.136 59.728C111.733 59.8347 112.896 60.0587 114.624 60.4C114.869 60.4427 115.056 60.5707 115.184 60.784C115.323 60.9867 115.365 61.216 115.312 61.472L115.296 61.584C115.243 61.8293 115.109 62.0213 114.896 62.16C114.693 62.2987 114.475 62.3467 114.24 62.304C112.203 61.8987 111.035 61.6693 110.736 61.616ZM115.52 56.512C115.765 56.5547 115.957 56.6827 116.096 56.896C116.235 57.1093 116.277 57.3387 116.224 57.584L116.192 57.728C116.149 57.9733 116.021 58.1653 115.808 58.304C115.605 58.4427 115.381 58.4853 115.136 58.432C113.813 58.1653 112.597 57.936 111.488 57.744C111.243 57.7013 111.045 57.5787 110.896 57.376C110.757 57.1733 110.709 56.9493 110.752 56.704L110.784 56.576C110.827 56.3307 110.955 56.1333 111.168 55.984C111.381 55.8347 111.611 55.7813 111.856 55.824C112.923 56.0053 114.144 56.2347 115.52 56.512ZM134.528 66.48C134.624 66.48 134.672 66.4373 134.672 66.352V64.272C134.672 64.1867 134.624 64.144 134.528 64.144H128.656C128.421 64.144 128.219 64.064 128.048 63.904C127.888 63.7333 127.808 63.5307 127.808 63.296C127.808 63.0613 127.888 62.8587 128.048 62.688C128.219 62.5173 128.421 62.432 128.656 62.432H134.528C134.624 62.432 134.672 62.3893 134.672 62.304V60.656C134.672 60.5707 134.624 60.528 134.528 60.528H127.952C127.717 60.528 127.515 60.448 127.344 60.288C127.184 60.1173 127.104 59.9147 127.104 59.68C127.104 59.4453 127.184 59.2427 127.344 59.072C127.515 58.9013 127.717 58.816 127.952 58.816H135.824C136.069 58.816 136.283 58.9067 136.464 59.088C136.645 59.2693 136.736 59.4827 136.736 59.728V67.312C136.736 67.5573 136.645 67.7707 136.464 67.952C136.283 68.1333 136.069 68.224 135.824 68.224H127.968C127.733 68.224 127.531 68.1387 127.36 67.968C127.189 67.7973 127.104 67.5947 127.104 67.36C127.104 67.1147 127.189 66.9067 127.36 66.736C127.531 66.5653 127.733 66.48 127.968 66.48H134.528ZM142.976 58.304C142.752 58.1973 142.603 58.0267 142.528 57.792C142.453 57.5573 142.475 57.3333 142.592 57.12L142.752 56.8C142.869 56.576 143.045 56.4267 143.28 56.352C143.525 56.2773 143.765 56.2933 144 56.4C145.056 56.912 146.171 57.488 147.344 58.128C147.557 58.2453 147.696 58.4267 147.76 58.672C147.835 58.9173 147.813 59.1467 147.696 59.36L147.52 59.68C147.403 59.8933 147.221 60.0373 146.976 60.112C146.731 60.176 146.501 60.1493 146.288 60.032C145.04 59.3493 143.936 58.7733 142.976 58.304ZM154.112 57.792C154.357 57.8453 154.549 57.9787 154.688 58.192C154.827 58.4053 154.869 58.6347 154.816 58.88C154.187 61.6213 152.955 63.7653 151.12 65.312C149.296 66.8587 146.832 67.8293 143.728 68.224C143.472 68.256 143.243 68.192 143.04 68.032C142.848 67.8827 142.731 67.68 142.688 67.424L142.656 67.136C142.613 66.8907 142.667 66.672 142.816 66.48C142.965 66.2773 143.163 66.16 143.408 66.128C146.032 65.7653 148.096 64.9653 149.6 63.728C151.104 62.4907 152.155 60.7253 152.752 58.432C152.816 58.1867 152.955 57.9947 153.168 57.856C153.381 57.7173 153.611 57.6747 153.856 57.728L154.112 57.792ZM164.048 56.848H169.12C169.365 56.848 169.579 56.9387 169.76 57.12C169.941 57.3013 170.032 57.5147 170.032 57.76V57.808C170.032 58.0533 169.941 58.2667 169.76 58.448C169.579 58.6293 169.365 58.72 169.12 58.72H164.048C163.803 58.72 163.589 58.6293 163.408 58.448C163.237 58.2667 163.152 58.0533 163.152 57.808V57.76C163.152 57.5147 163.237 57.3013 163.408 57.12C163.589 56.9387 163.803 56.848 164.048 56.848ZM159.456 68.768C159.2 68.8 158.965 68.7413 158.752 68.592C158.539 68.4533 158.405 68.256 158.352 68C157.957 66.1973 157.76 64.2773 157.76 62.24C157.76 60.2027 157.957 58.2827 158.352 56.48C158.405 56.224 158.539 56.0267 158.752 55.888C158.965 55.7387 159.2 55.68 159.456 55.712L159.76 55.744C159.995 55.7653 160.181 55.8773 160.32 56.08C160.459 56.2827 160.501 56.5013 160.448 56.736C160.075 58.4213 159.888 60.256 159.888 62.24C159.888 64.224 160.075 66.0587 160.448 67.744C160.501 67.9787 160.459 68.1973 160.32 68.4C160.181 68.6027 159.995 68.7147 159.76 68.736L159.456 68.768ZM166.672 68.208C165.168 68.208 163.979 67.92 163.104 67.344C162.24 66.7573 161.808 65.9787 161.808 65.008C161.808 64.176 162.267 63.2427 163.184 62.208C163.355 62.016 163.573 61.92 163.84 61.92C164.107 61.9093 164.336 61.984 164.528 62.144L164.608 62.192C164.8 62.3413 164.901 62.5387 164.912 62.784C164.923 63.0293 164.848 63.2427 164.688 63.424C164.176 64.0427 163.92 64.544 163.92 64.928C163.92 65.8347 164.837 66.288 166.672 66.288C167.483 66.288 168.352 66.208 169.28 66.048C169.525 66.0053 169.749 66.0587 169.952 66.208C170.155 66.3467 170.277 66.5333 170.32 66.768V66.832C170.363 67.088 170.315 67.3227 170.176 67.536C170.037 67.7493 169.845 67.8773 169.6 67.92C168.64 68.112 167.664 68.208 166.672 68.208ZM173.6 59.12L173.552 58.864C173.499 58.6187 173.536 58.3893 173.664 58.176C173.803 57.9627 173.989 57.8293 174.224 57.776C177.125 57.1253 179.275 56.8 180.672 56.8C184.757 56.8 186.8 58.5067 186.8 61.92C186.8 66.0053 183.616 68.1333 177.248 68.304C176.992 68.3147 176.768 68.2293 176.576 68.048C176.395 67.8773 176.293 67.664 176.272 67.408L176.256 67.2C176.245 66.9547 176.32 66.7467 176.48 66.576C176.651 66.3947 176.859 66.2987 177.104 66.288C179.707 66.2133 181.589 65.8347 182.752 65.152C183.925 64.4693 184.512 63.4613 184.512 62.128C184.512 61.008 184.187 60.1867 183.536 59.664C182.885 59.1413 181.856 58.88 180.448 58.88C179.307 58.88 177.381 59.184 174.672 59.792C174.437 59.8453 174.213 59.808 174 59.68C173.787 59.552 173.653 59.3653 173.6 59.12ZM200.576 66.128C200.459 63.216 199.909 60.5387 198.928 58.096C198.843 57.872 198.848 57.6533 198.944 57.44C199.04 57.216 199.205 57.0667 199.44 56.992L199.664 56.928C199.909 56.8533 200.149 56.8747 200.384 56.992C200.629 57.0987 200.805 57.2693 200.912 57.504C202.011 60.0747 202.608 62.9493 202.704 66.128C202.715 66.3733 202.629 66.5867 202.448 66.768C202.267 66.9493 202.053 67.04 201.808 67.04H201.488C201.243 67.04 201.029 66.9493 200.848 66.768C200.677 66.5867 200.587 66.3733 200.576 66.128ZM193.328 68.752C192.421 68.752 191.579 68.1333 190.8 66.896C190.032 65.6587 189.648 64.16 189.648 62.4C189.648 60.7893 189.835 59.2107 190.208 57.664C190.272 57.408 190.411 57.2107 190.624 57.072C190.848 56.9227 191.093 56.864 191.36 56.896L191.632 56.928C191.867 56.9493 192.048 57.0613 192.176 57.264C192.315 57.4667 192.357 57.6853 192.304 57.92C191.963 59.4347 191.792 60.928 191.792 62.4C191.792 63.584 191.979 64.5813 192.352 65.392C192.736 66.2027 193.115 66.608 193.488 66.608C193.723 66.608 194.027 66.384 194.4 65.936C194.773 65.4773 195.152 64.816 195.536 63.952C195.643 63.7173 195.808 63.552 196.032 63.456C196.267 63.3493 196.501 63.3387 196.736 63.424L196.912 63.488C197.147 63.5733 197.317 63.7333 197.424 63.968C197.531 64.192 197.536 64.416 197.44 64.64C196.896 65.9307 196.245 66.9387 195.488 67.664C194.731 68.3893 194.011 68.752 193.328 68.752ZM206.32 58.56C206.075 58.56 205.861 58.4747 205.68 58.304C205.509 58.1227 205.424 57.9093 205.424 57.664V57.552C205.424 57.3067 205.515 57.0933 205.696 56.912C205.877 56.7307 206.091 56.64 206.336 56.64C209.984 56.6293 213.755 56.5387 217.648 56.368C217.893 56.3573 218.112 56.4373 218.304 56.608C218.496 56.7787 218.597 56.9867 218.608 57.232V57.344C218.619 57.6 218.539 57.824 218.368 58.016C218.208 58.1973 218 58.304 217.744 58.336C215.483 58.624 213.781 59.2107 212.64 60.096C211.499 60.9707 210.928 62.016 210.928 63.232C210.928 64.2987 211.291 65.1413 212.016 65.76C212.741 66.3787 213.696 66.688 214.88 66.688C215.243 66.688 215.595 66.6667 215.936 66.624C216.181 66.6027 216.4 66.6667 216.592 66.816C216.795 66.9653 216.912 67.1627 216.944 67.408L216.96 67.552C216.992 67.7973 216.933 68.0213 216.784 68.224C216.635 68.4373 216.437 68.56 216.192 68.592C215.68 68.6453 215.205 68.672 214.768 68.672C212.901 68.672 211.413 68.1973 210.304 67.248C209.195 66.2987 208.64 65.0293 208.64 63.44C208.64 62.4693 208.944 61.5467 209.552 60.672C210.16 59.7973 211.019 59.0613 212.128 58.464C212.139 58.464 212.144 58.4533 212.144 58.432H212.128C210.475 58.496 208.539 58.5387 206.32 58.56ZM49.712 88.4C48.3893 88.4 47.728 88.8373 47.728 89.712C47.728 90.2027 47.888 90.5653 48.208 90.8C48.528 91.0347 49.0293 91.152 49.712 91.152C50.2347 91.152 50.6027 91.0133 50.816 90.736C51.04 90.448 51.152 89.9627 51.152 89.28V88.688C51.152 88.6027 51.104 88.5493 51.008 88.528C50.624 88.4427 50.192 88.4 49.712 88.4ZM49.712 92.96C48.368 92.96 47.3547 92.6613 46.672 92.064C45.9893 91.4773 45.648 90.6933 45.648 89.712C45.648 88.72 45.9947 87.9467 46.688 87.392C47.392 86.8373 48.4 86.56 49.712 86.56C50.1493 86.56 50.5813 86.592 51.008 86.656C51.04 86.6667 51.072 86.6613 51.104 86.64C51.136 86.608 51.152 86.576 51.152 86.544V80.16C51.152 79.9147 51.2373 79.7013 51.408 79.52C51.5893 79.3387 51.8027 79.248 52.048 79.248H52.368C52.6133 79.248 52.8267 79.3387 53.008 79.52C53.1893 79.7013 53.28 79.9147 53.28 80.16V81.68C53.28 81.7653 53.328 81.808 53.424 81.808H57.232C57.4773 81.808 57.6853 81.8987 57.856 82.08C58.0373 82.2613 58.128 82.4747 58.128 82.72C58.128 82.9653 58.0373 83.1787 57.856 83.36C57.6853 83.5413 57.4773 83.632 57.232 83.632H53.424C53.328 83.632 53.28 83.6747 53.28 83.76V87.2C53.28 87.296 53.3173 87.36 53.392 87.392C54.576 87.9467 56 88.8533 57.664 90.112C57.8667 90.2613 57.9787 90.464 58 90.72C58.0213 90.9653 57.952 91.184 57.792 91.376L57.68 91.52C57.52 91.712 57.3173 91.824 57.072 91.856C56.8267 91.8773 56.6027 91.8133 56.4 91.664C55.1627 90.704 54.16 89.9947 53.392 89.536C53.3707 89.5147 53.344 89.5147 53.312 89.536C53.28 89.5467 53.264 89.568 53.264 89.6C53.2213 90.7413 52.9067 91.584 52.32 92.128C51.7333 92.6827 50.864 92.96 49.712 92.96ZM64.96 88.832C63.7973 88.032 63.0773 87.4773 62.8 87.168C62.5333 86.8587 62.4 86.4427 62.4 85.92C62.4 85.3547 62.544 84.9173 62.832 84.608C63.12 84.2987 63.8453 83.7707 65.008 83.024C66.896 81.7973 68.544 80.656 69.952 79.6C70.1547 79.4507 70.384 79.392 70.64 79.424C70.896 79.4453 71.104 79.5573 71.264 79.76L71.424 79.968C71.584 80.16 71.648 80.3787 71.616 80.624C71.5947 80.8693 71.4827 81.0613 71.28 81.2C69.52 82.5013 67.8773 83.6427 66.352 84.624C65.712 85.0293 65.3013 85.3067 65.12 85.456C64.9387 85.6053 64.848 85.76 64.848 85.92C64.848 86.0693 64.928 86.2187 65.088 86.368C65.248 86.5173 65.6213 86.7893 66.208 87.184C68.0533 88.432 69.9093 89.808 71.776 91.312C71.968 91.4613 72.0693 91.664 72.08 91.92C72.1013 92.1653 72.0267 92.3787 71.856 92.56L71.68 92.768C71.5093 92.9493 71.296 93.0453 71.04 93.056C70.784 93.0773 70.5547 93.008 70.352 92.848C68.72 91.5253 66.9227 90.1867 64.96 88.832ZM77.68 86.448C77.4347 86.448 77.2213 86.3627 77.04 86.192C76.8587 86.0107 76.768 85.7973 76.768 85.552C76.768 85.3067 76.8587 85.0933 77.04 84.912C77.2213 84.7307 77.4347 84.64 77.68 84.64H79.888C79.984 84.64 80.032 84.592 80.032 84.496V82C80.032 81.9147 79.984 81.872 79.888 81.872H79.376C79.2907 81.872 79.232 81.9147 79.2 82C78.976 82.6613 78.7893 83.168 78.64 83.52C78.544 83.7547 78.3733 83.92 78.128 84.016C77.8827 84.1013 77.6427 84.096 77.408 84C77.1733 83.904 77.008 83.744 76.912 83.52C76.8267 83.296 76.832 83.0667 76.928 82.832C77.3333 81.8293 77.68 80.6987 77.968 79.44C78.0213 79.1947 78.1547 78.9973 78.368 78.848C78.5813 78.6987 78.8107 78.6453 79.056 78.688H79.072C79.3173 78.7307 79.5093 78.8587 79.648 79.072C79.7973 79.2747 79.8453 79.4987 79.792 79.744L79.744 79.984C79.7227 80.0693 79.76 80.112 79.856 80.112H82.992C83.2373 80.112 83.4453 80.2027 83.616 80.384C83.7867 80.5547 83.872 80.7573 83.872 80.992C83.872 81.2267 83.7867 81.4347 83.616 81.616C83.4453 81.7867 83.2373 81.872 82.992 81.872H82.24C82.1547 81.872 82.112 81.9147 82.112 82V84.496C82.112 84.592 82.1547 84.64 82.24 84.64H83.632C83.9733 84.64 84.2347 84.8 84.416 85.12C84.4267 85.1307 84.4373 85.136 84.448 85.136C84.4693 85.136 84.48 85.1253 84.48 85.104V80.72C84.48 80.4747 84.5707 80.2613 84.752 80.08C84.9333 79.8987 85.1467 79.808 85.392 79.808H90.16C90.4053 79.808 90.6187 79.8987 90.8 80.08C90.9813 80.2613 91.072 80.4747 91.072 80.72V92.24C91.072 92.4853 90.9813 92.6987 90.8 92.88C90.6187 93.0613 90.4053 93.152 90.16 93.152H89.824C89.6107 93.152 89.424 93.072 89.264 92.912C89.1147 92.752 89.04 92.5653 89.04 92.352C89.04 92.2773 89.0027 92.24 88.928 92.24H86.576C86.4907 92.24 86.448 92.2773 86.448 92.352C86.448 92.5653 86.368 92.752 86.208 92.912C86.0587 93.072 85.8773 93.152 85.664 93.152H85.392C85.1467 93.152 84.9333 93.0613 84.752 92.88C84.5707 92.6987 84.48 92.4853 84.48 92.24V85.984C84.48 85.9627 84.4693 85.952 84.448 85.952C84.4373 85.952 84.4267 85.9627 84.416 85.984C84.2453 86.2933 83.984 86.448 83.632 86.448H82.112C82.0267 86.448 81.9733 86.496 81.952 86.592C81.9413 86.6773 81.9147 86.8053 81.872 86.976C81.8507 87.072 81.8667 87.152 81.92 87.216C82.592 88.1973 83.296 89.2853 84.032 90.48C84.1707 90.6933 84.2133 90.928 84.16 91.184C84.1067 91.4293 83.9733 91.6267 83.76 91.776L83.648 91.856C83.4453 91.9947 83.2267 92.0373 82.992 91.984C82.7573 91.9307 82.5813 91.8027 82.464 91.6C82.08 90.9387 81.6533 90.224 81.184 89.456C81.1413 89.4027 81.0987 89.408 81.056 89.472C80.4373 90.8373 79.6427 91.936 78.672 92.768C78.48 92.928 78.256 92.992 78 92.96C77.7547 92.928 77.5573 92.8107 77.408 92.608L77.264 92.416C77.1147 92.2133 77.056 91.9893 77.088 91.744C77.12 91.4987 77.232 91.2907 77.424 91.12C78.7467 89.9147 79.5627 88.4053 79.872 86.592C79.8827 86.56 79.872 86.528 79.84 86.496C79.8187 86.464 79.792 86.448 79.76 86.448H77.68ZM86.448 81.76V90.336C86.448 90.432 86.496 90.48 86.592 90.48H88.896C88.992 90.48 89.04 90.432 89.04 90.336V81.76C89.04 81.6747 88.992 81.632 88.896 81.632H86.592C86.496 81.632 86.448 81.6747 86.448 81.76ZM95.136 88.08C94.8907 88.0267 94.6933 87.8987 94.544 87.696C94.4053 87.4827 94.3573 87.2533 94.4 87.008C94.656 85.536 94.832 84.464 94.928 83.792C94.9707 83.536 95.088 83.328 95.28 83.168C95.472 82.9973 95.696 82.9227 95.952 82.944L96.224 82.976C96.4693 82.9973 96.6667 83.104 96.816 83.296C96.976 83.488 97.04 83.7067 97.008 83.952C96.8693 84.9653 96.768 85.6747 96.704 86.08V86.112H96.72L96.736 86.096C97.44 85.616 98.2187 85.2373 99.072 84.96C99.936 84.672 100.747 84.528 101.504 84.528C103.093 84.528 104.261 84.8427 105.008 85.472C105.765 86.0907 106.144 87.04 106.144 88.32C106.144 89.7387 105.547 90.8427 104.352 91.632C103.157 92.4107 101.424 92.8 99.152 92.8C98.3093 92.8 97.3867 92.7573 96.384 92.672C96.128 92.6507 95.9147 92.544 95.744 92.352C95.584 92.16 95.5147 91.936 95.536 91.68V91.648C95.5467 91.4027 95.648 91.2 95.84 91.04C96.0427 90.88 96.2667 90.8107 96.512 90.832C97.7387 90.9387 98.6187 90.992 99.152 90.992C100.624 90.992 101.755 90.7573 102.544 90.288C103.344 89.808 103.744 89.152 103.744 88.32C103.744 87.008 102.891 86.352 101.184 86.352C100 86.352 98.5813 86.8427 96.928 87.824C96.3733 88.144 95.8187 88.24 95.264 88.112L95.136 88.08ZM97.408 79.952C99.3813 80.1653 101.317 80.288 103.216 80.32C103.461 80.32 103.669 80.4107 103.84 80.592C104.021 80.7733 104.112 80.9867 104.112 81.232C104.112 81.4773 104.021 81.6907 103.84 81.872C103.669 82.0427 103.461 82.128 103.216 82.128C101.157 82.096 99.1467 81.9733 97.184 81.76C96.928 81.728 96.72 81.6107 96.56 81.408C96.4107 81.2053 96.352 80.9813 96.384 80.736C96.416 80.4907 96.5333 80.2933 96.736 80.144C96.9387 79.9947 97.1627 79.9307 97.408 79.952ZM118.224 89.28V89.216C118.224 89.12 118.181 89.056 118.096 89.024C117.531 88.7467 117.003 88.608 116.512 88.608C115.925 88.608 115.483 88.72 115.184 88.944C114.896 89.168 114.752 89.4773 114.752 89.872C114.752 90.288 114.907 90.6133 115.216 90.848C115.525 91.0827 115.957 91.2 116.512 91.2C117.163 91.2 117.611 91.0667 117.856 90.8C118.101 90.5333 118.224 90.0267 118.224 89.28ZM122.336 81.376C122.592 81.3973 122.795 81.5093 122.944 81.712C123.104 81.9147 123.168 82.144 123.136 82.4C123.104 82.6453 122.987 82.8427 122.784 82.992C122.581 83.1413 122.357 83.2 122.112 83.168C121.515 83.0933 120.939 83.0507 120.384 83.04C120.299 83.04 120.256 83.088 120.256 83.184V88.032C120.256 88.1173 120.288 88.1867 120.352 88.24C121.077 88.688 121.845 89.264 122.656 89.968C122.848 90.128 122.949 90.336 122.96 90.592C122.971 90.848 122.891 91.0667 122.72 91.248L122.672 91.296C122.501 91.4773 122.293 91.5787 122.048 91.6C121.803 91.6213 121.584 91.552 121.392 91.392C121.232 91.2533 121.013 91.0773 120.736 90.864C120.459 90.64 120.299 90.512 120.256 90.48C120.192 90.4373 120.149 90.448 120.128 90.512C119.957 91.3333 119.573 91.936 118.976 92.32C118.389 92.7147 117.568 92.912 116.512 92.912C115.328 92.912 114.4 92.64 113.728 92.096C113.067 91.552 112.736 90.8107 112.736 89.872C112.736 88.9547 113.061 88.2293 113.712 87.696C114.373 87.152 115.307 86.88 116.512 86.88C116.981 86.88 117.515 86.9707 118.112 87.152C118.187 87.1733 118.224 87.1413 118.224 87.056V82.08C118.224 81.8347 118.309 81.6213 118.48 81.44C118.661 81.2587 118.875 81.1733 119.12 81.184C120.485 81.2267 121.557 81.2907 122.336 81.376ZM109.68 90.672C109.445 90.5973 109.28 90.448 109.184 90.224C109.088 90 109.083 89.7707 109.168 89.536C109.979 87.4773 110.715 85.3387 111.376 83.12C111.397 83.0347 111.365 82.992 111.28 82.992H110.096C109.851 82.992 109.637 82.9013 109.456 82.72C109.285 82.5387 109.2 82.3253 109.2 82.08C109.2 81.8347 109.285 81.6213 109.456 81.44C109.637 81.2587 109.851 81.168 110.096 81.168H111.792C111.888 81.168 111.947 81.1253 111.968 81.04C112.011 80.9013 112.064 80.6933 112.128 80.416C112.192 80.1387 112.245 79.9307 112.288 79.792C112.352 79.5467 112.491 79.3547 112.704 79.216C112.917 79.0667 113.152 79.008 113.408 79.04H113.52C113.765 79.072 113.952 79.1893 114.08 79.392C114.219 79.5947 114.261 79.8133 114.208 80.048C114.101 80.496 114.021 80.8267 113.968 81.04C113.947 81.1253 113.984 81.168 114.08 81.168H115.696C115.941 81.168 116.155 81.2587 116.336 81.44C116.517 81.6213 116.608 81.8347 116.608 82.08C116.608 82.3253 116.517 82.5387 116.336 82.72C116.155 82.9013 115.941 82.992 115.696 82.992H113.584C113.488 82.992 113.429 83.04 113.408 83.136C112.747 85.4827 111.952 87.824 111.024 90.16C110.928 90.3947 110.763 90.5707 110.528 90.688C110.304 90.7947 110.069 90.8053 109.824 90.72L109.68 90.672ZM136.576 90.128C136.459 87.216 135.909 84.5387 134.928 82.096C134.843 81.872 134.848 81.6533 134.944 81.44C135.04 81.216 135.205 81.0667 135.44 80.992L135.664 80.928C135.909 80.8533 136.149 80.8747 136.384 80.992C136.629 81.0987 136.805 81.2693 136.912 81.504C138.011 84.0747 138.608 86.9493 138.704 90.128C138.715 90.3733 138.629 90.5867 138.448 90.768C138.267 90.9493 138.053 91.04 137.808 91.04H137.488C137.243 91.04 137.029 90.9493 136.848 90.768C136.677 90.5867 136.587 90.3733 136.576 90.128ZM129.328 92.752C128.421 92.752 127.579 92.1333 126.8 90.896C126.032 89.6587 125.648 88.16 125.648 86.4C125.648 84.7893 125.835 83.2107 126.208 81.664C126.272 81.408 126.411 81.2107 126.624 81.072C126.848 80.9227 127.093 80.864 127.36 80.896L127.632 80.928C127.867 80.9493 128.048 81.0613 128.176 81.264C128.315 81.4667 128.357 81.6853 128.304 81.92C127.963 83.4347 127.792 84.928 127.792 86.4C127.792 87.584 127.979 88.5813 128.352 89.392C128.736 90.2027 129.115 90.608 129.488 90.608C129.723 90.608 130.027 90.384 130.4 89.936C130.773 89.4773 131.152 88.816 131.536 87.952C131.643 87.7173 131.808 87.552 132.032 87.456C132.267 87.3493 132.501 87.3387 132.736 87.424L132.912 87.488C133.147 87.5733 133.317 87.7333 133.424 87.968C133.531 88.192 133.536 88.416 133.44 88.64C132.896 89.9307 132.245 90.9387 131.488 91.664C130.731 92.3893 130.011 92.752 129.328 92.752ZM142.08 83.888C141.835 83.888 141.621 83.8027 141.44 83.632C141.259 83.4507 141.168 83.2373 141.168 82.992C141.168 82.7467 141.259 82.5333 141.44 82.352C141.621 82.1707 141.835 82.08 142.08 82.08H143.904C143.989 82.08 144.043 82.032 144.064 81.936C144.224 81.232 144.368 80.5013 144.496 79.744C144.549 79.4987 144.672 79.3013 144.864 79.152C145.067 78.992 145.296 78.9227 145.552 78.944L145.664 78.96C145.909 78.9813 146.107 79.0933 146.256 79.296C146.405 79.488 146.459 79.7067 146.416 79.952C146.277 80.7627 146.16 81.4293 146.064 81.952C146.043 82.0373 146.08 82.08 146.176 82.08H147.088C147.632 82.08 148.037 82.08 148.304 82.08C148.581 82.08 148.885 82.112 149.216 82.176C149.547 82.24 149.771 82.2933 149.888 82.336C150.016 82.3787 150.16 82.5013 150.32 82.704C150.491 82.9067 150.592 83.088 150.624 83.248C150.656 83.408 150.699 83.696 150.752 84.112C150.805 84.5173 150.832 84.8907 150.832 85.232C150.832 85.5733 150.832 86.0853 150.832 86.768C150.832 88.816 150.581 90.3253 150.08 91.296C149.579 92.2667 148.901 92.752 148.048 92.752C147.408 92.752 146.571 92.5973 145.536 92.288C145.291 92.2133 145.109 92.064 144.992 91.84C144.875 91.616 144.853 91.376 144.928 91.12L144.96 91.024C145.035 90.7893 145.179 90.6187 145.392 90.512C145.616 90.3947 145.851 90.3733 146.096 90.448C146.8 90.6613 147.312 90.768 147.632 90.768C147.813 90.768 147.979 90.6347 148.128 90.368C148.277 90.1013 148.405 89.632 148.512 88.96C148.629 88.2773 148.688 87.44 148.688 86.448C148.688 85.168 148.629 84.4213 148.512 84.208C148.405 83.9947 148.005 83.888 147.312 83.888H145.776C145.691 83.888 145.637 83.9307 145.616 84.016C144.955 86.7787 144.117 89.4507 143.104 92.032C143.008 92.2773 142.843 92.448 142.608 92.544C142.384 92.6507 142.155 92.6613 141.92 92.576L141.808 92.544C141.573 92.4693 141.408 92.3147 141.312 92.08C141.216 91.856 141.211 91.6267 141.296 91.392C142.181 89.056 142.944 86.5973 143.584 84.016C143.605 83.9307 143.573 83.888 143.488 83.888H142.08ZM153.44 88.544C152.875 86.5067 152.192 84.4267 151.392 82.304C151.307 82.08 151.317 81.8613 151.424 81.648C151.531 81.424 151.701 81.2747 151.936 81.2L152.144 81.136C152.389 81.0613 152.629 81.0827 152.864 81.2C153.099 81.3173 153.259 81.4987 153.344 81.744C154.08 83.664 154.763 85.776 155.392 88.08C155.456 88.3147 155.424 88.544 155.296 88.768C155.168 88.9813 154.981 89.1147 154.736 89.168L154.544 89.2C154.299 89.2533 154.069 89.216 153.856 89.088C153.643 88.96 153.504 88.7787 153.44 88.544ZM159.136 88.08C158.891 88.0267 158.693 87.8987 158.544 87.696C158.405 87.4827 158.357 87.2533 158.4 87.008C158.656 85.536 158.832 84.464 158.928 83.792C158.971 83.536 159.088 83.328 159.28 83.168C159.472 82.9973 159.696 82.9227 159.952 82.944L160.224 82.976C160.469 82.9973 160.667 83.104 160.816 83.296C160.976 83.488 161.04 83.7067 161.008 83.952C160.869 84.9653 160.768 85.6747 160.704 86.08V86.112H160.72L160.736 86.096C161.44 85.616 162.219 85.2373 163.072 84.96C163.936 84.672 164.747 84.528 165.504 84.528C167.093 84.528 168.261 84.8427 169.008 85.472C169.765 86.0907 170.144 87.04 170.144 88.32C170.144 89.7387 169.547 90.8427 168.352 91.632C167.157 92.4107 165.424 92.8 163.152 92.8C162.309 92.8 161.387 92.7573 160.384 92.672C160.128 92.6507 159.915 92.544 159.744 92.352C159.584 92.16 159.515 91.936 159.536 91.68V91.648C159.547 91.4027 159.648 91.2 159.84 91.04C160.043 90.88 160.267 90.8107 160.512 90.832C161.739 90.9387 162.619 90.992 163.152 90.992C164.624 90.992 165.755 90.7573 166.544 90.288C167.344 89.808 167.744 89.152 167.744 88.32C167.744 87.008 166.891 86.352 165.184 86.352C164 86.352 162.581 86.8427 160.928 87.824C160.373 88.144 159.819 88.24 159.264 88.112L159.136 88.08ZM161.408 79.952C163.381 80.1653 165.317 80.288 167.216 80.32C167.461 80.32 167.669 80.4107 167.84 80.592C168.021 80.7733 168.112 80.9867 168.112 81.232C168.112 81.4773 168.021 81.6907 167.84 81.872C167.669 82.0427 167.461 82.128 167.216 82.128C165.157 82.096 163.147 81.9733 161.184 81.76C160.928 81.728 160.72 81.6107 160.56 81.408C160.411 81.2053 160.352 80.9813 160.384 80.736C160.416 80.4907 160.533 80.2933 160.736 80.144C160.939 79.9947 161.163 79.9307 161.408 79.952ZM46.544 117.344C46.2987 117.419 46.0587 117.403 45.824 117.296C45.5893 117.189 45.4133 117.013 45.296 116.768L45.264 116.72C45.168 116.507 45.168 116.293 45.264 116.08C45.3707 115.867 45.536 115.723 45.76 115.648C47.104 115.232 48.288 114.768 49.312 114.256C49.5253 114.139 49.7493 114.112 49.984 114.176C50.2187 114.229 50.4053 114.357 50.544 114.56C50.6827 114.773 50.7253 114.997 50.672 115.232C50.6187 115.467 50.4853 115.643 50.272 115.76C49.1733 116.379 47.9307 116.907 46.544 117.344ZM58.624 116.912C58.496 117.125 58.304 117.264 58.048 117.328C57.8027 117.403 57.568 117.381 57.344 117.264C56.3413 116.763 55.1573 116.251 53.792 115.728C53.5787 115.643 53.4293 115.499 53.344 115.296C53.2587 115.093 53.2693 114.891 53.376 114.688C53.4933 114.475 53.6587 114.32 53.872 114.224C54.096 114.128 54.3253 114.117 54.56 114.192C56.0213 114.661 57.2693 115.147 58.304 115.648C58.528 115.755 58.672 115.925 58.736 116.16C58.8107 116.405 58.784 116.635 58.656 116.848L58.624 116.912ZM47.072 111.76C46.8267 111.76 46.6133 111.669 46.432 111.488C46.2507 111.307 46.16 111.093 46.16 110.848V104.16C46.16 103.915 46.2507 103.701 46.432 103.52C46.6133 103.339 46.8267 103.248 47.072 103.248H56.928C57.1733 103.248 57.3867 103.339 57.568 103.52C57.7493 103.701 57.84 103.915 57.84 104.16V110.848C57.84 111.093 57.7493 111.307 57.568 111.488C57.3867 111.669 57.1733 111.76 56.928 111.76H48.288H47.072ZM48.288 105.04V105.664C48.288 105.76 48.336 105.808 48.432 105.808H55.568C55.664 105.808 55.712 105.76 55.712 105.664V105.04C55.712 104.944 55.664 104.896 55.568 104.896H48.432C48.336 104.896 48.288 104.944 48.288 105.04ZM48.288 107.264V107.92C48.288 108.016 48.336 108.064 48.432 108.064H55.568C55.664 108.064 55.712 108.016 55.712 107.92V107.264C55.712 107.179 55.664 107.136 55.568 107.136H48.432C48.336 107.136 48.288 107.179 48.288 107.264ZM48.288 109.536V110.208C48.288 110.304 48.336 110.352 48.432 110.352H55.568C55.664 110.352 55.712 110.304 55.712 110.208V109.536C55.712 109.44 55.664 109.392 55.568 109.392H48.432C48.336 109.392 48.288 109.44 48.288 109.536ZM45.648 114.128C45.4133 114.128 45.2107 114.048 45.04 113.888C44.88 113.717 44.8 113.515 44.8 113.28C44.8 113.045 44.88 112.848 45.04 112.688C45.2107 112.517 45.4133 112.432 45.648 112.432H58.352C58.5867 112.432 58.784 112.517 58.944 112.688C59.1147 112.848 59.2 113.045 59.2 113.28C59.2 113.515 59.1147 113.717 58.944 113.888C58.784 114.048 58.5867 114.128 58.352 114.128H45.648ZM60.752 111.376L60.56 110.64C60.4213 110.096 60.5227 109.552 60.864 109.008C61.7707 107.589 62.464 105.861 62.944 103.824C62.9973 103.579 63.1307 103.387 63.344 103.248C63.5573 103.099 63.7867 103.045 64.032 103.088L64.224 103.12C64.4693 103.173 64.6613 103.301 64.8 103.504C64.9387 103.696 64.9867 103.915 64.944 104.16C64.7307 105.205 64.4587 106.165 64.128 107.04C64.096 107.125 64.08 107.211 64.08 107.296V113.536C64.08 113.557 64.0907 113.557 64.112 113.536C64.1333 113.472 64.192 113.381 64.288 113.264C65.8987 111.387 67.1413 109.435 68.016 107.408C68.0587 107.323 68.032 107.28 67.936 107.28H65.408C65.1627 107.28 64.9547 107.195 64.784 107.024C64.6133 106.843 64.528 106.635 64.528 106.4C64.528 106.165 64.6133 105.963 64.784 105.792C64.9547 105.611 65.1627 105.52 65.408 105.52H68.928C69.0133 105.52 69.056 105.472 69.056 105.376V103.888C69.056 103.643 69.1467 103.435 69.328 103.264C69.5093 103.083 69.7227 102.992 69.968 102.992H70.24C70.4853 102.992 70.6933 103.083 70.864 103.264C71.0453 103.435 71.136 103.643 71.136 103.888V105.376C71.136 105.472 71.184 105.52 71.28 105.52H74.816C75.0613 105.52 75.2693 105.611 75.44 105.792C75.6107 105.963 75.696 106.165 75.696 106.4C75.696 106.635 75.6107 106.843 75.44 107.024C75.2693 107.195 75.0613 107.28 74.816 107.28H72.32C72.224 107.28 72.1973 107.323 72.24 107.408C73.0293 109.285 74.112 111.088 75.488 112.816C75.6587 113.029 75.7547 113.275 75.776 113.552C75.808 113.819 75.7547 114.069 75.616 114.304L75.36 114.752C75.2533 114.933 75.0933 115.029 74.88 115.04C74.6667 115.051 74.496 114.971 74.368 114.8C74.048 114.352 73.84 114.059 73.744 113.92C73.7227 113.909 73.7013 113.92 73.68 113.952V114.032C73.68 114.277 73.5893 114.491 73.408 114.672C73.2267 114.843 73.0133 114.928 72.768 114.928H71.28C71.184 114.928 71.136 114.976 71.136 115.072V116.592C71.136 116.837 71.0453 117.045 70.864 117.216C70.6933 117.397 70.4853 117.488 70.24 117.488H69.968C69.7227 117.488 69.5093 117.397 69.328 117.216C69.1467 117.045 69.056 116.837 69.056 116.592V115.072C69.056 114.976 69.0133 114.928 68.928 114.928H67.328C67.0827 114.928 66.8693 114.843 66.688 114.672C66.5067 114.491 66.416 114.277 66.416 114.032V113.968C66.416 113.947 66.4053 113.931 66.384 113.92C66.3627 113.909 66.3467 113.915 66.336 113.936L65.664 114.848C65.5147 115.029 65.3227 115.125 65.088 115.136C64.8533 115.136 64.6613 115.051 64.512 114.88L64.288 114.608C64.256 114.576 64.2027 114.485 64.128 114.336C64.096 114.304 64.08 114.304 64.08 114.336V116.592C64.08 116.837 63.9893 117.045 63.808 117.216C63.6267 117.397 63.4133 117.488 63.168 117.488H62.976C62.7307 117.488 62.5173 117.397 62.336 117.216C62.1653 117.045 62.08 116.837 62.08 116.592V110.816C62.08 110.795 62.0693 110.784 62.048 110.784C62.0267 110.784 62.0107 110.789 62 110.8C61.8933 110.981 61.7333 111.232 61.52 111.552C61.4133 111.701 61.2693 111.755 61.088 111.712C60.9067 111.669 60.7947 111.557 60.752 111.376ZM71.136 109.168V113.12C71.136 113.205 71.184 113.248 71.28 113.248H73.168C73.2 113.248 73.2213 113.237 73.232 113.216C73.2533 113.184 73.2533 113.157 73.232 113.136C72.432 111.877 71.7547 110.555 71.2 109.168C71.1893 109.157 71.1733 109.152 71.152 109.152C71.1413 109.152 71.136 109.157 71.136 109.168ZM66.896 113.12C66.8747 113.141 66.8693 113.168 66.88 113.2C66.9013 113.232 66.928 113.248 66.96 113.248H68.928C69.0133 113.248 69.056 113.205 69.056 113.12V109.184C69.0453 109.173 69.0293 109.173 69.008 109.184C68.4533 110.517 67.7493 111.829 66.896 113.12ZM77.84 117.2C77.5947 117.2 77.3813 117.109 77.2 116.928C77.0187 116.747 76.928 116.533 76.928 116.288V105.808C76.928 105.563 77.0187 105.355 77.2 105.184C77.3813 105.003 77.5947 104.912 77.84 104.912H78.56C78.6453 104.912 78.704 104.869 78.736 104.784C78.8747 104.432 79.0027 104.027 79.12 103.568C79.1947 103.323 79.3333 103.131 79.536 102.992C79.7493 102.843 79.984 102.784 80.24 102.816L80.464 102.848C80.6987 102.88 80.88 102.997 81.008 103.2C81.1467 103.392 81.184 103.605 81.12 103.84C80.992 104.267 80.896 104.581 80.832 104.784C80.8107 104.869 80.8427 104.912 80.928 104.912H82.048C82.2933 104.912 82.5067 105.003 82.688 105.184C82.8693 105.355 82.96 105.563 82.96 105.808V107.36C82.96 107.381 82.9653 107.397 82.976 107.408C82.9973 107.408 83.0133 107.403 83.024 107.392C83.76 106.24 84.3413 104.965 84.768 103.568C84.8533 103.312 85.0027 103.109 85.216 102.96C85.4293 102.811 85.664 102.752 85.92 102.784L86.112 102.816C86.3573 102.848 86.544 102.96 86.672 103.152C86.8107 103.344 86.8427 103.557 86.768 103.792C86.7253 103.941 86.6507 104.165 86.544 104.464C86.5227 104.549 86.5547 104.592 86.64 104.592H90.432C90.6773 104.592 90.8907 104.683 91.072 104.864C91.2533 105.035 91.3387 105.243 91.328 105.488C91.296 107.419 91.2587 109.019 91.216 110.288C91.184 111.557 91.1253 112.651 91.04 113.568C90.9653 114.475 90.8853 115.168 90.8 115.648C90.7253 116.117 90.608 116.485 90.448 116.752C90.288 117.019 90.128 117.179 89.968 117.232C89.8187 117.296 89.6053 117.328 89.328 117.328C88.9227 117.328 88.048 117.307 86.704 117.264C86.448 117.253 86.2293 117.157 86.048 116.976C85.8773 116.795 85.7813 116.576 85.76 116.32V116.288C85.7493 116.053 85.824 115.851 85.984 115.68C86.1547 115.509 86.3627 115.429 86.608 115.44C87.3227 115.472 87.9093 115.488 88.368 115.488C88.5387 115.488 88.6667 115.323 88.752 114.992C88.848 114.661 88.9387 113.84 89.024 112.528C89.1093 111.205 89.184 109.211 89.248 106.544C89.248 106.448 89.2053 106.4 89.12 106.4H85.92C85.824 106.4 85.76 106.443 85.728 106.528C85.3973 107.232 84.9813 107.973 84.48 108.752C84.4693 108.763 84.4693 108.773 84.48 108.784C84.4907 108.795 84.5067 108.795 84.528 108.784L85.088 108.464C85.312 108.325 85.5467 108.288 85.792 108.352C86.0373 108.405 86.2347 108.539 86.384 108.752C86.9707 109.637 87.488 110.501 87.936 111.344C88.0533 111.568 88.0693 111.797 87.984 112.032C87.9093 112.267 87.76 112.443 87.536 112.56L87.472 112.592C87.248 112.699 87.0187 112.715 86.784 112.64C86.5493 112.565 86.3733 112.421 86.256 112.208C85.6907 111.195 85.056 110.187 84.352 109.184C84.3307 109.163 84.304 109.152 84.272 109.152C84.24 109.152 84.2133 109.163 84.192 109.184C84.1813 109.195 84.1653 109.216 84.144 109.248C84.1333 109.269 84.1227 109.285 84.112 109.296C83.984 109.467 83.8187 109.568 83.616 109.6C83.4133 109.632 83.2267 109.595 83.056 109.488C82.992 109.445 82.96 109.461 82.96 109.536V115.12C82.96 115.365 82.8693 115.579 82.688 115.76C82.5067 115.941 82.2933 116.032 82.048 116.032H79.072C78.976 116.032 78.928 116.075 78.928 116.16V116.288C78.928 116.533 78.8373 116.747 78.656 116.928C78.4853 117.109 78.2773 117.2 78.032 117.2H77.84ZM78.928 106.8V109.472C78.928 109.557 78.976 109.6 79.072 109.6H80.88C80.9653 109.6 81.008 109.557 81.008 109.472V106.8C81.008 106.715 80.9653 106.672 80.88 106.672H79.072C78.976 106.672 78.928 106.715 78.928 106.8ZM78.928 111.44V114.176C78.928 114.272 78.976 114.32 79.072 114.32H80.88C80.9653 114.32 81.008 114.272 81.008 114.176V111.44C81.008 111.355 80.9653 111.312 80.88 111.312H79.072C78.976 111.312 78.928 111.355 78.928 111.44ZM102.224 113.28V113.216C102.224 113.12 102.181 113.056 102.096 113.024C101.531 112.747 101.003 112.608 100.512 112.608C99.9253 112.608 99.4827 112.72 99.184 112.944C98.896 113.168 98.752 113.477 98.752 113.872C98.752 114.288 98.9067 114.613 99.216 114.848C99.5253 115.083 99.9573 115.2 100.512 115.2C101.163 115.2 101.611 115.067 101.856 114.8C102.101 114.533 102.224 114.027 102.224 113.28ZM106.336 105.376C106.592 105.397 106.795 105.509 106.944 105.712C107.104 105.915 107.168 106.144 107.136 106.4C107.104 106.645 106.987 106.843 106.784 106.992C106.581 107.141 106.357 107.2 106.112 107.168C105.515 107.093 104.939 107.051 104.384 107.04C104.299 107.04 104.256 107.088 104.256 107.184V112.032C104.256 112.117 104.288 112.187 104.352 112.24C105.077 112.688 105.845 113.264 106.656 113.968C106.848 114.128 106.949 114.336 106.96 114.592C106.971 114.848 106.891 115.067 106.72 115.248L106.672 115.296C106.501 115.477 106.293 115.579 106.048 115.6C105.803 115.621 105.584 115.552 105.392 115.392C105.232 115.253 105.013 115.077 104.736 114.864C104.459 114.64 104.299 114.512 104.256 114.48C104.192 114.437 104.149 114.448 104.128 114.512C103.957 115.333 103.573 115.936 102.976 116.32C102.389 116.715 101.568 116.912 100.512 116.912C99.328 116.912 98.4 116.64 97.728 116.096C97.0667 115.552 96.736 114.811 96.736 113.872C96.736 112.955 97.0613 112.229 97.712 111.696C98.3733 111.152 99.3067 110.88 100.512 110.88C100.981 110.88 101.515 110.971 102.112 111.152C102.187 111.173 102.224 111.141 102.224 111.056V106.08C102.224 105.835 102.309 105.621 102.48 105.44C102.661 105.259 102.875 105.173 103.12 105.184C104.485 105.227 105.557 105.291 106.336 105.376ZM93.68 114.672C93.4453 114.597 93.28 114.448 93.184 114.224C93.088 114 93.0827 113.771 93.168 113.536C93.9787 111.477 94.7147 109.339 95.376 107.12C95.3973 107.035 95.3653 106.992 95.28 106.992H94.096C93.8507 106.992 93.6373 106.901 93.456 106.72C93.2853 106.539 93.2 106.325 93.2 106.08C93.2 105.835 93.2853 105.621 93.456 105.44C93.6373 105.259 93.8507 105.168 94.096 105.168H95.792C95.888 105.168 95.9467 105.125 95.968 105.04C96.0107 104.901 96.064 104.693 96.128 104.416C96.192 104.139 96.2453 103.931 96.288 103.792C96.352 103.547 96.4907 103.355 96.704 103.216C96.9173 103.067 97.152 103.008 97.408 103.04H97.52C97.7653 103.072 97.952 103.189 98.08 103.392C98.2187 103.595 98.2613 103.813 98.208 104.048C98.1013 104.496 98.0213 104.827 97.968 105.04C97.9467 105.125 97.984 105.168 98.08 105.168H99.696C99.9413 105.168 100.155 105.259 100.336 105.44C100.517 105.621 100.608 105.835 100.608 106.08C100.608 106.325 100.517 106.539 100.336 106.72C100.155 106.901 99.9413 106.992 99.696 106.992H97.584C97.488 106.992 97.4293 107.04 97.408 107.136C96.7467 109.483 95.952 111.824 95.024 114.16C94.928 114.395 94.7627 114.571 94.528 114.688C94.304 114.795 94.0693 114.805 93.824 114.72L93.68 114.672ZM122.48 107.28C122.725 107.28 122.933 107.371 123.104 107.552C123.275 107.723 123.36 107.925 123.36 108.16C123.36 108.395 123.275 108.603 123.104 108.784C122.933 108.955 122.725 109.04 122.48 109.04H120.24C120.155 109.04 120.112 109.088 120.112 109.184V110.64C120.112 110.725 120.155 110.768 120.24 110.768H121.968C122.213 110.768 122.427 110.859 122.608 111.04C122.789 111.221 122.88 111.435 122.88 111.68V116.48C122.88 116.725 122.789 116.939 122.608 117.12C122.427 117.301 122.213 117.392 121.968 117.392H121.456C121.275 117.392 121.12 117.323 120.992 117.184C120.864 117.056 120.8 116.907 120.8 116.736C120.8 116.672 120.768 116.64 120.704 116.64H117.296C117.232 116.64 117.2 116.672 117.2 116.736C117.2 116.907 117.131 117.056 116.992 117.184C116.864 117.323 116.715 117.392 116.544 117.392H116.16C115.915 117.392 115.701 117.301 115.52 117.12C115.339 116.939 115.248 116.725 115.248 116.48V111.68C115.248 111.435 115.339 111.221 115.52 111.04C115.701 110.859 115.915 110.768 116.16 110.768H117.888C117.984 110.768 118.032 110.725 118.032 110.64V109.184C118.032 109.088 117.984 109.04 117.888 109.04H115.632C115.387 109.04 115.179 108.955 115.008 108.784C114.837 108.603 114.752 108.395 114.752 108.16C114.752 107.925 114.837 107.723 115.008 107.552C115.179 107.371 115.387 107.28 115.632 107.28H117.888C117.984 107.28 118.032 107.232 118.032 107.136V105.888C118.032 105.803 117.984 105.76 117.888 105.76C117.472 105.813 116.891 105.867 116.144 105.92C115.909 105.931 115.696 105.856 115.504 105.696C115.323 105.536 115.221 105.333 115.2 105.088C115.189 104.853 115.259 104.645 115.408 104.464C115.568 104.283 115.771 104.181 116.016 104.16C118.149 104 120.048 103.707 121.712 103.28C121.957 103.227 122.187 103.264 122.4 103.392C122.613 103.509 122.747 103.685 122.8 103.92C122.853 104.165 122.816 104.4 122.688 104.624C122.56 104.837 122.373 104.976 122.128 105.04C121.445 105.211 120.816 105.344 120.24 105.44C120.155 105.461 120.112 105.515 120.112 105.6V107.136C120.112 107.232 120.155 107.28 120.24 107.28H122.48ZM120.656 112.352H117.344C117.248 112.352 117.2 112.4 117.2 112.496V114.912C117.2 115.008 117.248 115.056 117.344 115.056H120.656C120.752 115.056 120.8 115.008 120.8 114.912V112.496C120.8 112.4 120.752 112.352 120.656 112.352ZM109.92 103.44H113.648C113.872 103.44 114.059 103.52 114.208 103.68C114.368 103.829 114.448 104.016 114.448 104.24C114.448 104.464 114.368 104.656 114.208 104.816C114.059 104.976 113.872 105.056 113.648 105.056H109.92C109.696 105.056 109.504 104.976 109.344 104.816C109.195 104.656 109.12 104.464 109.12 104.24C109.12 104.016 109.195 103.829 109.344 103.68C109.504 103.52 109.696 103.44 109.92 103.44ZM109.552 107.456C109.307 107.456 109.099 107.371 108.928 107.2C108.768 107.029 108.688 106.827 108.688 106.592C108.688 106.357 108.768 106.155 108.928 105.984C109.099 105.813 109.307 105.728 109.552 105.728H113.968C114.213 105.728 114.416 105.813 114.576 105.984C114.747 106.155 114.832 106.357 114.832 106.592C114.832 106.827 114.747 107.029 114.576 107.2C114.416 107.371 114.213 107.456 113.968 107.456H109.552ZM110.032 109.728C109.819 109.728 109.632 109.653 109.472 109.504C109.323 109.344 109.248 109.157 109.248 108.944C109.248 108.731 109.323 108.549 109.472 108.4C109.632 108.24 109.819 108.16 110.032 108.16H113.648C113.861 108.16 114.043 108.24 114.192 108.4C114.352 108.549 114.432 108.731 114.432 108.944C114.432 109.157 114.352 109.344 114.192 109.504C114.043 109.653 113.861 109.728 113.648 109.728H110.032ZM110.032 111.984C109.819 111.984 109.632 111.909 109.472 111.76C109.323 111.6 109.248 111.413 109.248 111.2C109.248 110.987 109.323 110.805 109.472 110.656C109.632 110.507 109.819 110.432 110.032 110.432H113.648C113.861 110.432 114.043 110.507 114.192 110.656C114.352 110.805 114.432 110.987 114.432 111.2C114.432 111.413 114.352 111.6 114.192 111.76C114.043 111.909 113.861 111.984 113.648 111.984H110.032ZM114.512 113.6V116.08C114.512 116.325 114.421 116.539 114.24 116.72C114.059 116.901 113.845 116.992 113.6 116.992H111.088C111.035 116.992 111.008 117.013 111.008 117.056C111.008 117.205 110.96 117.328 110.864 117.424C110.768 117.52 110.645 117.568 110.496 117.568H110.032C109.787 117.568 109.573 117.477 109.392 117.296C109.211 117.125 109.12 116.917 109.12 116.672V113.6C109.12 113.355 109.211 113.141 109.392 112.96C109.573 112.779 109.787 112.688 110.032 112.688H113.6C113.845 112.688 114.059 112.779 114.24 112.96C114.421 113.141 114.512 113.355 114.512 113.6ZM112.768 115.312V114.368C112.768 114.272 112.725 114.224 112.64 114.224H111.152C111.056 114.224 111.008 114.272 111.008 114.368V115.312C111.008 115.408 111.056 115.456 111.152 115.456H112.64C112.725 115.456 112.768 115.408 112.768 115.312ZM126.192 106.448C125.957 106.448 125.755 106.368 125.584 106.208C125.413 106.037 125.328 105.835 125.328 105.6C125.328 105.365 125.413 105.168 125.584 105.008C125.755 104.837 125.957 104.752 126.192 104.752H128.64C128.715 104.752 128.773 104.704 128.816 104.608L129.104 103.84C129.189 103.595 129.344 103.408 129.568 103.28C129.792 103.141 130.032 103.093 130.288 103.136L130.56 103.2C130.795 103.253 130.971 103.381 131.088 103.584C131.205 103.776 131.227 103.984 131.152 104.208C131.131 104.261 131.099 104.336 131.056 104.432C131.024 104.517 131.003 104.576 130.992 104.608C130.971 104.704 131.003 104.752 131.088 104.752H136.752C136.987 104.752 137.184 104.837 137.344 105.008C137.515 105.168 137.6 105.365 137.6 105.6C137.6 105.835 137.515 106.037 137.344 106.208C137.184 106.368 136.987 106.448 136.752 106.448H130.384C130.288 106.448 130.224 106.491 130.192 106.576C130.043 106.928 129.861 107.328 129.648 107.776C129.648 107.797 129.653 107.808 129.664 107.808H129.68C130.245 107.584 130.789 107.472 131.312 107.472C132.677 107.472 133.621 108.069 134.144 109.264C134.176 109.349 134.245 109.381 134.352 109.36C135.205 109.189 135.995 109.056 136.72 108.96C136.955 108.928 137.168 108.987 137.36 109.136C137.552 109.285 137.659 109.483 137.68 109.728C137.701 109.973 137.637 110.192 137.488 110.384C137.339 110.576 137.141 110.688 136.896 110.72C135.968 110.859 135.253 110.981 134.752 111.088C134.656 111.109 134.619 111.163 134.64 111.248C134.704 111.813 134.741 112.293 134.752 112.688C134.763 112.933 134.677 113.147 134.496 113.328C134.325 113.509 134.117 113.6 133.872 113.6H133.552C133.307 113.6 133.093 113.515 132.912 113.344C132.731 113.163 132.635 112.949 132.624 112.704C132.613 112.416 132.597 112.123 132.576 111.824C132.576 111.728 132.533 111.691 132.448 111.712C130.731 112.309 129.872 112.955 129.872 113.648C129.872 113.947 129.952 114.192 130.112 114.384C130.272 114.565 130.619 114.72 131.152 114.848C131.685 114.976 132.432 115.04 133.392 115.04C134.203 115.04 135.232 114.96 136.48 114.8C136.725 114.768 136.944 114.832 137.136 114.992C137.339 115.141 137.451 115.339 137.472 115.584C137.493 115.84 137.424 116.064 137.264 116.256C137.115 116.459 136.912 116.576 136.656 116.608C135.579 116.736 134.491 116.8 133.392 116.8C131.387 116.8 129.941 116.56 129.056 116.08C128.171 115.611 127.728 114.875 127.728 113.872C127.728 112.229 129.168 110.928 132.048 109.968C132.144 109.947 132.171 109.893 132.128 109.808C131.883 109.36 131.451 109.136 130.832 109.136C129.829 109.136 128.672 109.979 127.36 111.664C127.2 111.867 126.992 111.995 126.736 112.048C126.48 112.091 126.245 112.048 126.032 111.92L125.904 111.84C125.701 111.712 125.573 111.531 125.52 111.296C125.467 111.061 125.509 110.843 125.648 110.64C126.608 109.243 127.392 107.893 128 106.592C128.011 106.56 128.005 106.528 127.984 106.496C127.973 106.464 127.952 106.448 127.92 106.448H126.192ZM141.872 117.408C141.627 117.408 141.413 117.317 141.232 117.136C141.051 116.965 140.96 116.757 140.96 116.512V104.16C140.96 103.915 141.051 103.701 141.232 103.52C141.413 103.339 141.627 103.248 141.872 103.248H146.608C146.853 103.248 147.067 103.339 147.248 103.52C147.429 103.701 147.52 103.915 147.52 104.16V108.288C147.52 108.533 147.429 108.747 147.248 108.928C147.067 109.109 146.853 109.2 146.608 109.2H143.152C143.056 109.2 143.008 109.248 143.008 109.344V116.512C143.008 116.757 142.917 116.965 142.736 117.136C142.565 117.317 142.357 117.408 142.112 117.408H141.872ZM143.008 104.944V105.504C143.008 105.6 143.056 105.648 143.152 105.648H145.6C145.685 105.648 145.728 105.6 145.728 105.504V104.944C145.728 104.859 145.685 104.816 145.6 104.816H143.152C143.056 104.816 143.008 104.859 143.008 104.944ZM143.008 107.088V107.632C143.008 107.728 143.056 107.776 143.152 107.776H145.6C145.685 107.776 145.728 107.728 145.728 107.632V107.088C145.728 106.992 145.685 106.944 145.6 106.944H143.152C143.056 106.944 143.008 106.992 143.008 107.088ZM154.128 103.248C154.373 103.248 154.587 103.339 154.768 103.52C154.949 103.701 155.04 103.915 155.04 104.16V114.752C155.04 115.189 155.029 115.536 155.008 115.792C154.997 116.037 154.955 116.267 154.88 116.48C154.816 116.704 154.736 116.864 154.64 116.96C154.544 117.056 154.389 117.136 154.176 117.2C153.973 117.275 153.749 117.317 153.504 117.328C153.269 117.349 152.944 117.36 152.528 117.36C152.507 117.36 152.272 117.349 151.824 117.328C151.451 117.307 151.179 117.141 151.008 116.832C150.965 116.757 150.912 116.741 150.848 116.784C150.699 116.901 150.523 116.96 150.32 116.96C150.075 116.96 149.861 116.869 149.68 116.688C149.499 116.507 149.408 116.293 149.408 116.048V116.032C149.408 115.947 149.371 115.904 149.296 115.904C147.632 116.064 146.011 116.176 144.432 116.24C144.251 116.251 144.091 116.192 143.952 116.064C143.813 115.936 143.739 115.781 143.728 115.6C143.717 115.419 143.771 115.264 143.888 115.136C144.016 114.997 144.171 114.923 144.352 114.912C144.384 114.912 144.432 114.912 144.496 114.912C144.571 114.901 144.624 114.896 144.656 114.896C144.752 114.896 144.8 114.848 144.8 114.752V111.296C144.8 111.211 144.757 111.168 144.672 111.168H144.48C144.299 111.168 144.139 111.104 144 110.976C143.872 110.837 143.808 110.677 143.808 110.496C143.808 110.315 143.872 110.16 144 110.032C144.139 109.904 144.299 109.84 144.48 109.84H151.52C151.701 109.84 151.856 109.904 151.984 110.032C152.123 110.16 152.192 110.315 152.192 110.496C152.192 110.677 152.123 110.837 151.984 110.976C151.856 111.104 151.701 111.168 151.52 111.168H151.344C151.269 111.168 151.232 111.211 151.232 111.296V115.568C151.232 115.643 151.264 115.669 151.328 115.648C151.424 115.605 151.552 115.584 151.712 115.584C151.861 115.595 152.021 115.6 152.192 115.6C152.576 115.6 152.805 115.568 152.88 115.504C152.955 115.429 152.992 115.211 152.992 114.848V109.344C152.992 109.248 152.944 109.2 152.848 109.2H149.232C148.987 109.2 148.773 109.109 148.592 108.928C148.411 108.747 148.32 108.533 148.32 108.288V104.16C148.32 103.915 148.411 103.701 148.592 103.52C148.773 103.339 148.987 103.248 149.232 103.248H154.128ZM149.408 114.464V114.336C149.408 114.251 149.365 114.208 149.28 114.208H146.752C146.656 114.208 146.608 114.251 146.608 114.336V114.656C146.608 114.741 146.651 114.784 146.736 114.784C147.237 114.752 148.085 114.693 149.28 114.608C149.365 114.608 149.408 114.56 149.408 114.464ZM149.408 113.088V112.816C149.408 112.731 149.365 112.688 149.28 112.688H146.752C146.656 112.688 146.608 112.731 146.608 112.816V113.088C146.608 113.184 146.656 113.232 146.752 113.232H149.28C149.365 113.232 149.408 113.184 149.408 113.088ZM149.408 111.568V111.296C149.408 111.211 149.365 111.168 149.28 111.168H146.752C146.656 111.168 146.608 111.211 146.608 111.296V111.568C146.608 111.664 146.656 111.712 146.752 111.712H149.28C149.365 111.712 149.408 111.664 149.408 111.568ZM152.992 107.632V107.088C152.992 106.992 152.944 106.944 152.848 106.944H150.24C150.155 106.944 150.112 106.992 150.112 107.088V107.632C150.112 107.728 150.155 107.776 150.24 107.776H152.848C152.944 107.776 152.992 107.728 152.992 107.632ZM152.992 105.504V104.944C152.992 104.859 152.944 104.816 152.848 104.816H150.24C150.155 104.816 150.112 104.859 150.112 104.944V105.504C150.112 105.6 150.155 105.648 150.24 105.648H152.848C152.944 105.648 152.992 105.6 152.992 105.504ZM168.576 114.128C168.459 111.216 167.909 108.539 166.928 106.096C166.843 105.872 166.848 105.653 166.944 105.44C167.04 105.216 167.205 105.067 167.44 104.992L167.664 104.928C167.909 104.853 168.149 104.875 168.384 104.992C168.629 105.099 168.805 105.269 168.912 105.504C170.011 108.075 170.608 110.949 170.704 114.128C170.715 114.373 170.629 114.587 170.448 114.768C170.267 114.949 170.053 115.04 169.808 115.04H169.488C169.243 115.04 169.029 114.949 168.848 114.768C168.677 114.587 168.587 114.373 168.576 114.128ZM161.328 116.752C160.421 116.752 159.579 116.133 158.8 114.896C158.032 113.659 157.648 112.16 157.648 110.4C157.648 108.789 157.835 107.211 158.208 105.664C158.272 105.408 158.411 105.211 158.624 105.072C158.848 104.923 159.093 104.864 159.36 104.896L159.632 104.928C159.867 104.949 160.048 105.061 160.176 105.264C160.315 105.467 160.357 105.685 160.304 105.92C159.963 107.435 159.792 108.928 159.792 110.4C159.792 111.584 159.979 112.581 160.352 113.392C160.736 114.203 161.115 114.608 161.488 114.608C161.723 114.608 162.027 114.384 162.4 113.936C162.773 113.477 163.152 112.816 163.536 111.952C163.643 111.717 163.808 111.552 164.032 111.456C164.267 111.349 164.501 111.339 164.736 111.424L164.912 111.488C165.147 111.573 165.317 111.733 165.424 111.968C165.531 112.192 165.536 112.416 165.44 112.64C164.896 113.931 164.245 114.939 163.488 115.664C162.731 116.389 162.011 116.752 161.328 116.752ZM174.32 106.56C174.075 106.56 173.861 106.475 173.68 106.304C173.509 106.123 173.424 105.909 173.424 105.664V105.552C173.424 105.307 173.515 105.093 173.696 104.912C173.877 104.731 174.091 104.64 174.336 104.64C177.984 104.629 181.755 104.539 185.648 104.368C185.893 104.357 186.112 104.437 186.304 104.608C186.496 104.779 186.597 104.987 186.608 105.232V105.344C186.619 105.6 186.539 105.824 186.368 106.016C186.208 106.197 186 106.304 185.744 106.336C183.483 106.624 181.781 107.211 180.64 108.096C179.499 108.971 178.928 110.016 178.928 111.232C178.928 112.299 179.291 113.141 180.016 113.76C180.741 114.379 181.696 114.688 182.88 114.688C183.243 114.688 183.595 114.667 183.936 114.624C184.181 114.603 184.4 114.667 184.592 114.816C184.795 114.965 184.912 115.163 184.944 115.408L184.96 115.552C184.992 115.797 184.933 116.021 184.784 116.224C184.635 116.437 184.437 116.56 184.192 116.592C183.68 116.645 183.205 116.672 182.768 116.672C180.901 116.672 179.413 116.197 178.304 115.248C177.195 114.299 176.64 113.029 176.64 111.44C176.64 110.469 176.944 109.547 177.552 108.672C178.16 107.797 179.019 107.061 180.128 106.464C180.139 106.464 180.144 106.453 180.144 106.432H180.128C178.475 106.496 176.539 106.539 174.32 106.56ZM191.008 103.616C191.616 104.085 192.032 104.416 192.256 104.608C192.448 104.779 192.555 104.992 192.576 105.248C192.597 105.493 192.528 105.717 192.368 105.92L192.32 105.968C192.16 106.16 191.957 106.267 191.712 106.288C191.477 106.299 191.264 106.224 191.072 106.064C190.507 105.595 190.085 105.253 189.808 105.04C189.616 104.891 189.504 104.693 189.472 104.448C189.44 104.203 189.504 103.984 189.664 103.792L189.696 103.776C189.867 103.584 190.075 103.472 190.32 103.44C190.576 103.408 190.805 103.467 191.008 103.616ZM189.12 108.576C188.928 108.427 188.816 108.229 188.784 107.984C188.752 107.728 188.816 107.504 188.976 107.312L188.992 107.296C189.152 107.104 189.36 106.992 189.616 106.96C189.872 106.917 190.101 106.971 190.304 107.12C190.752 107.451 191.275 107.877 191.872 108.4C192.064 108.571 192.165 108.784 192.176 109.04C192.197 109.285 192.128 109.509 191.968 109.712L191.92 109.76C191.771 109.952 191.573 110.059 191.328 110.08C191.083 110.091 190.869 110.016 190.688 109.856C190.464 109.664 189.941 109.237 189.12 108.576ZM189.568 116.8C189.365 116.661 189.237 116.469 189.184 116.224C189.131 115.979 189.163 115.749 189.28 115.536C189.845 114.544 190.368 113.413 190.848 112.144C190.933 111.909 191.088 111.744 191.312 111.648C191.536 111.541 191.765 111.531 192 111.616L192.064 111.632C192.309 111.728 192.485 111.893 192.592 112.128C192.699 112.363 192.715 112.597 192.64 112.832C192.213 114.133 191.653 115.397 190.96 116.624C190.843 116.837 190.656 116.971 190.4 117.024C190.155 117.077 189.931 117.035 189.728 116.896L189.568 116.8ZM202.896 109.808C203.099 109.808 203.269 109.883 203.408 110.032C203.557 110.171 203.632 110.347 203.632 110.56V110.688C203.632 110.923 203.547 111.131 203.376 111.312C203.205 111.483 202.997 111.568 202.752 111.568H199.456C199.371 111.568 199.339 111.611 199.36 111.696C199.861 113.093 201.067 114.304 202.976 115.328C203.189 115.435 203.328 115.611 203.392 115.856C203.467 116.091 203.445 116.309 203.328 116.512L203.216 116.704C203.088 116.928 202.901 117.077 202.656 117.152C202.421 117.237 202.192 117.216 201.968 117.088C200.368 116.181 199.115 114.944 198.208 113.376C198.197 113.355 198.176 113.344 198.144 113.344C198.112 113.344 198.085 113.355 198.064 113.376C197.125 115.019 195.824 116.267 194.16 117.12C193.925 117.237 193.685 117.253 193.44 117.168C193.195 117.093 193.003 116.944 192.864 116.72L192.736 116.512C192.608 116.309 192.581 116.096 192.656 115.872C192.731 115.637 192.875 115.467 193.088 115.36C195.029 114.411 196.229 113.189 196.688 111.696C196.709 111.611 196.677 111.568 196.592 111.568H193.584C193.349 111.568 193.141 111.483 192.96 111.312C192.789 111.131 192.704 110.923 192.704 110.688C192.704 110.453 192.789 110.251 192.96 110.08C193.141 109.899 193.349 109.808 193.584 109.808H196.816C196.901 109.808 196.944 109.765 196.944 109.68V106.832C196.944 106.736 196.901 106.688 196.816 106.688H194.384C194.139 106.688 193.925 106.603 193.744 106.432C193.563 106.251 193.472 106.037 193.472 105.792C193.472 105.547 193.563 105.333 193.744 105.152C193.925 104.971 194.139 104.88 194.384 104.88H196.816C196.901 104.88 196.944 104.832 196.944 104.736V103.792C196.944 103.547 197.035 103.333 197.216 103.152C197.397 102.971 197.611 102.88 197.856 102.88H198.144C198.389 102.88 198.603 102.971 198.784 103.152C198.965 103.333 199.056 103.547 199.056 103.792V104.736C199.056 104.832 199.099 104.88 199.184 104.88H201.872C202.117 104.88 202.331 104.971 202.512 105.152C202.693 105.333 202.784 105.547 202.784 105.792V109.696C202.784 109.771 202.821 109.808 202.896 109.808ZM200.784 109.68V106.832C200.784 106.736 200.741 106.688 200.656 106.688H199.184C199.099 106.688 199.056 106.736 199.056 106.832V109.68C199.056 109.765 199.099 109.808 199.184 109.808H200.656C200.741 109.808 200.784 109.765 200.784 109.68ZM208.128 108.928C207.328 109.792 206.928 110.832 206.928 112.048C206.928 112.763 207.045 113.317 207.28 113.712C207.525 114.096 207.819 114.288 208.16 114.288C208.597 114.288 209.099 113.989 209.664 113.392C209.717 113.328 209.723 113.253 209.68 113.168C209.648 113.125 209.627 113.083 209.616 113.04C209.104 111.611 208.651 110.256 208.256 108.976C208.235 108.88 208.192 108.864 208.128 108.928ZM212.32 107.312C211.488 107.312 210.731 107.435 210.048 107.68C209.963 107.712 209.931 107.776 209.952 107.872C210.251 108.896 210.613 110.048 211.04 111.328C211.061 111.392 211.099 111.387 211.152 111.312C211.792 110.213 212.373 108.933 212.896 107.472C212.907 107.44 212.901 107.408 212.88 107.376C212.869 107.344 212.848 107.328 212.816 107.328C212.709 107.317 212.544 107.312 212.32 107.312ZM207.952 116.272C207.109 116.272 206.405 115.904 205.84 115.168C205.285 114.421 205.008 113.381 205.008 112.048C205.008 110.992 205.227 110.016 205.664 109.12C206.101 108.213 206.715 107.451 207.504 106.832C207.579 106.779 207.611 106.715 207.6 106.64C207.387 105.851 207.232 105.253 207.136 104.848C207.083 104.603 207.12 104.373 207.248 104.16C207.387 103.947 207.579 103.819 207.824 103.776L207.968 103.744C208.213 103.701 208.443 103.744 208.656 103.872C208.869 104 209.003 104.187 209.056 104.432C209.088 104.581 209.141 104.8 209.216 105.088C209.291 105.365 209.339 105.557 209.36 105.664C209.381 105.739 209.435 105.765 209.52 105.744C210.384 105.435 211.317 105.28 212.32 105.28C212.747 105.28 213.125 105.301 213.456 105.344C213.552 105.365 213.611 105.328 213.632 105.232C213.717 104.944 213.845 104.491 214.016 103.872C214.08 103.627 214.219 103.435 214.432 103.296C214.656 103.157 214.891 103.115 215.136 103.168L215.264 103.2C215.509 103.253 215.696 103.387 215.824 103.6C215.963 103.803 216 104.021 215.936 104.256C215.787 104.875 215.653 105.371 215.536 105.744C215.515 105.829 215.541 105.888 215.616 105.92C216.672 106.379 217.499 107.051 218.096 107.936C218.693 108.821 218.992 109.84 218.992 110.992C218.992 112.539 218.624 113.797 217.888 114.768C217.152 115.739 216.091 116.395 214.704 116.736C214.459 116.8 214.224 116.763 214 116.624C213.787 116.485 213.648 116.288 213.584 116.032L213.552 115.92C213.488 115.696 213.52 115.483 213.648 115.28C213.787 115.067 213.973 114.928 214.208 114.864C216.043 114.341 216.96 113.051 216.96 110.992C216.96 110.309 216.784 109.696 216.432 109.152C216.091 108.608 215.605 108.181 214.976 107.872C214.912 107.84 214.859 107.867 214.816 107.952C213.824 110.715 212.715 112.795 211.488 114.192C210.272 115.579 209.093 116.272 207.952 116.272ZM228.752 110.064C228.517 110.085 228.304 110.021 228.112 109.872C227.931 109.712 227.829 109.509 227.808 109.264C227.787 109.019 227.856 108.8 228.016 108.608C228.176 108.405 228.379 108.293 228.624 108.272C230.267 108.101 231.877 108.011 233.456 108C233.701 108 233.909 108.091 234.08 108.272C234.251 108.443 234.336 108.651 234.336 108.896C234.336 109.141 234.245 109.355 234.064 109.536C233.893 109.707 233.685 109.792 233.44 109.792C231.744 109.824 230.181 109.915 228.752 110.064ZM233.568 114.656C233.813 114.624 234.032 114.683 234.224 114.832C234.427 114.981 234.544 115.179 234.576 115.424C234.608 115.68 234.549 115.909 234.4 116.112C234.251 116.315 234.053 116.432 233.808 116.464C232.933 116.581 232.107 116.64 231.328 116.64C229.856 116.64 228.677 116.373 227.792 115.84C226.917 115.296 226.48 114.603 226.48 113.76C226.48 113.131 226.795 112.496 227.424 111.856C227.605 111.675 227.824 111.579 228.08 111.568C228.347 111.547 228.587 111.605 228.8 111.744C228.981 111.861 229.077 112.027 229.088 112.24C229.109 112.453 229.045 112.64 228.896 112.8C228.629 113.067 228.496 113.317 228.496 113.552C228.496 113.925 228.747 114.235 229.248 114.48C229.76 114.715 230.453 114.832 231.328 114.832C231.968 114.832 232.715 114.773 233.568 114.656ZM222.128 116.672C221.893 116.619 221.712 116.485 221.584 116.272C221.467 116.059 221.451 115.835 221.536 115.6C222.464 112.752 223.243 109.84 223.872 106.864C223.893 106.768 223.861 106.72 223.776 106.72H222.64C222.395 106.72 222.181 106.629 222 106.448C221.819 106.267 221.728 106.053 221.728 105.808C221.728 105.563 221.819 105.355 222 105.184C222.181 105.003 222.395 104.912 222.64 104.912H224.128C224.213 104.912 224.267 104.869 224.288 104.784C224.373 104.379 224.432 104.075 224.464 103.872C224.517 103.616 224.64 103.413 224.832 103.264C225.035 103.104 225.264 103.035 225.52 103.056L225.728 103.072C225.973 103.093 226.171 103.205 226.32 103.408C226.469 103.6 226.523 103.819 226.48 104.064C226.469 104.149 226.448 104.267 226.416 104.416C226.384 104.565 226.363 104.683 226.352 104.768C226.341 104.8 226.347 104.832 226.368 104.864C226.4 104.896 226.432 104.912 226.464 104.912H231.008C231.253 104.912 231.467 105.003 231.648 105.184C231.829 105.355 231.92 105.563 231.92 105.808C231.92 106.053 231.829 106.267 231.648 106.448C231.467 106.629 231.253 106.72 231.008 106.72H226.128C226.032 106.72 225.973 106.763 225.952 106.848C225.28 110.155 224.48 113.227 223.552 116.064C223.477 116.309 223.323 116.491 223.088 116.608C222.864 116.736 222.629 116.773 222.384 116.72L222.128 116.672ZM248.576 114.128C248.459 111.216 247.909 108.539 246.928 106.096C246.843 105.872 246.848 105.653 246.944 105.44C247.04 105.216 247.205 105.067 247.44 104.992L247.664 104.928C247.909 104.853 248.149 104.875 248.384 104.992C248.629 105.099 248.805 105.269 248.912 105.504C250.011 108.075 250.608 110.949 250.704 114.128C250.715 114.373 250.629 114.587 250.448 114.768C250.267 114.949 250.053 115.04 249.808 115.04H249.488C249.243 115.04 249.029 114.949 248.848 114.768C248.677 114.587 248.587 114.373 248.576 114.128ZM241.328 116.752C240.421 116.752 239.579 116.133 238.8 114.896C238.032 113.659 237.648 112.16 237.648 110.4C237.648 108.789 237.835 107.211 238.208 105.664C238.272 105.408 238.411 105.211 238.624 105.072C238.848 104.923 239.093 104.864 239.36 104.896L239.632 104.928C239.867 104.949 240.048 105.061 240.176 105.264C240.315 105.467 240.357 105.685 240.304 105.92C239.963 107.435 239.792 108.928 239.792 110.4C239.792 111.584 239.979 112.581 240.352 113.392C240.736 114.203 241.115 114.608 241.488 114.608C241.723 114.608 242.027 114.384 242.4 113.936C242.773 113.477 243.152 112.816 243.536 111.952C243.643 111.717 243.808 111.552 244.032 111.456C244.267 111.349 244.501 111.339 244.736 111.424L244.912 111.488C245.147 111.573 245.317 111.733 245.424 111.968C245.531 112.192 245.536 112.416 245.44 112.64C244.896 113.931 244.245 114.939 243.488 115.664C242.731 116.389 242.011 116.752 241.328 116.752ZM259.904 112.48C259.648 112.48 259.429 112.395 259.248 112.224C259.067 112.043 258.971 111.824 258.96 111.568L258.72 105.232C258.709 104.987 258.789 104.773 258.96 104.592C259.131 104.411 259.339 104.32 259.584 104.32H260.448C260.693 104.32 260.901 104.411 261.072 104.592C261.243 104.773 261.323 104.987 261.312 105.232L261.072 111.568C261.061 111.824 260.965 112.043 260.784 112.224C260.603 112.395 260.384 112.48 260.128 112.48H259.904ZM260.288 113.76C260.533 113.76 260.741 113.851 260.912 114.032C261.093 114.213 261.184 114.427 261.184 114.672V115.088C261.184 115.333 261.093 115.547 260.912 115.728C260.741 115.909 260.533 116 260.288 116H259.744C259.499 116 259.285 115.909 259.104 115.728C258.933 115.547 258.848 115.333 258.848 115.088V114.672C258.848 114.427 258.933 114.213 259.104 114.032C259.285 113.851 259.499 113.76 259.744 113.76H260.288Z" fill="#4C1015"/>
</svg>
