<svg width="250" height="306" viewBox="0 0 250 306" fill="none" xmlns="http://www.w3.org/2000/svg">
<path d="M119.992 43.1168V37.7868L113.541 39.6904L110.505 43.1168H105.572V37.7868L116.198 30.1726H125.305L119.992 23.7005L101.778 28.6497L103.295 32.0761H98.3624L91.5319 28.6497L88.4961 32.0761L86.9782 28.6497L91.5319 22.1777L98.3624 23.7005L112.023 14.5635L106.711 15.7056L103.295 11.8985L105.572 8.85279L99.8802 2L93.0498 4.28426V6.56853L91.5319 8.85279H88.4961L86.9782 6.56853L75.9736 11.8985L78.2504 14.5635L72.5583 19.8934L70.2815 17.6091V32.0761L65.3484 36.264L57 65.5787L61.5537 68.6244V71.6701H65.3484V95.6548L57 104.792V113.929H72.5583L88.4961 101.365L98.3624 103.269L105.572 80.4264L134.412 103.269L137.068 97.5584L165.149 81.9492L172.739 71.6701L160.216 59.868L156.801 32.0761L143.519 33.9797V37.7868L138.966 39.6904L137.068 36.264L128.72 39.6904L125.305 45.401L119.992 43.1168Z" fill="#861D47" stroke="#4C1015" stroke-width="3"/>
<path d="M101.042 109.883L107.493 87.4213L135.574 109.883L141.266 99.9848L167.07 87.4213L176.177 76L200.843 79.4264L220.196 99.9848L225.129 96.5584L239.928 112.548V117.878L244.103 123.589L241.826 123.97L239.928 125.873L222.093 120.543L216.781 123.589V131.964L212.607 137.294L227.406 169.655L246 166.609L209.191 209.249L189.079 218.386L176.177 214.959L161.378 222.954L147.337 263.31L141.266 259.503L127.984 280.442L122.672 272.066H110.529L93.0731 283.107H74.479L63.0949 299.858L57.7823 297.954L30.0809 303.284V299.858L9.9689 283.107L7.3126 272.066L9.9689 263.31L4.6563 259.503L7.3126 254.553L2 214.959L4.6563 195.924L2 193.259L13.0047 147.574L21.353 141.482L32.7372 143.386L46.7776 128.157L56.6439 123.589V120.543H74.479L89.6579 107.599L101.042 109.883Z" fill="#D0AD74" stroke="#4C1015" stroke-width="3"/>
</svg>
